<?xml version="1.0" encoding="UTF-8" standalone="no"?>
<!-- Generator: Adobe Illustrator 19.2.1, SVG Export Plug-In . SVG Version: 6.00 Build 0)  -->

<svg
   version="1.1"
   id="Warstwa_1"
   x="0px"
   y="0px"
   width="500"
   height="510"
   viewBox="0 0 499.99999 509.99967"
   xml:space="preserve"
   sodipodi:docname="spaces-model.svg"
   inkscape:version="1.4.3 (1:1.4.3+202512261034+0d15f75042)"
   xmlns:inkscape="http://www.inkscape.org/namespaces/inkscape"
   xmlns:sodipodi="http://sodipodi.sourceforge.net/DTD/sodipodi-0.dtd"
   xmlns:xlink="http://www.w3.org/1999/xlink"
   xmlns="http://www.w3.org/2000/svg"
   xmlns:svg="http://www.w3.org/2000/svg"><defs
   id="defs216" /><sodipodi:namedview
   id="namedview216"
   pagecolor="#ffffff"
   bordercolor="#666666"
   borderopacity="1.0"
   inkscape:showpageshadow="2"
   inkscape:pageopacity="0.0"
   inkscape:pagecheckerboard="0"
   inkscape:deskcolor="#d1d1d1"
   inkscape:zoom="1.4804046"
   inkscape:cx="217.84585"
   inkscape:cy="248.24295"
   inkscape:window-width="2560"
   inkscape:window-height="1376"
   inkscape:window-x="0"
   inkscape:window-y="27"
   inkscape:window-maximized="1"
   inkscape:current-layer="layer1" />
<style
   type="text/css"
   id="style1">
	.st0{fill:#626262;}
	.st1{fill:#F53B3B;}
	.st2{fill:#FFFFFF;}
	.st3{fill:#E53233;}
	.st4{fill:#F53C3C;}
	.st5{clip-path:url(#SVGID_2_);}
	.st6{fill:#050505;}
</style>
<g
   inkscape:groupmode="layer"
   id="layer1"
   inkscape:label="background"><rect
     style="fill:#ffffff;fill-opacity:1;stroke:none;stroke-width:32.2852;stroke-linecap:round"
     id="rect216"
     width="500"
     height="510"
     x="0"
     y="0" /></g><g
   id="g216"
   transform="matrix(1.2047977,0,0,1.2047977,19.100525,16.931979)">
	<g
   id="g1">
		<path
   class="st0"
   d="M 133.8,395.5 H 47.1 l 3.4,-8.4 -3.4,-6.2 3.7,-5.9 -3.4,-5.8 3.4,-5.5 -4.1,-6.2 h 87.7 l -5.7,5.4 3.4,5.8 -3.4,6 3.4,6 -3.6,6.3 z m -83.8,-2 h 80.2 l -3.6,-5.9 v -1.1 l 3.3,-5.7 -3.3,-5.7 v -0.5 l 0.1,-0.3 3.1,-5.5 -3.3,-5.7 v -0.7 l 0.3,-0.4 2.6,-2.5 h -79 l 2.8,4.1 -3.5,5.6 3.4,5.8 -3.7,5.9 3.1,5.8 v 0.4 l -0.1,0.2 z"
   id="path1" />
	</g>
	<g
   id="g19">
		<path
   class="st0"
   d="m 65.2,369.6 c 0,2.3 -0.8,3.5 -2.1,3.5 -1.2,0 -2,-1.2 -2,-3.4 0,-2.2 0.9,-3.5 2.1,-3.5 1.3,0 2,1.3 2,3.4 z m -3.3,0.1 c 0,1.7 0.5,2.7 1.2,2.7 0.8,0 1.2,-1.1 1.2,-2.8 0,-1.6 -0.4,-2.7 -1.2,-2.7 -0.6,0 -1.2,1 -1.2,2.8 z"
   id="path2" />
		<path
   class="st0"
   d="m 69.7,367.2 v 0 l -1.1,0.6 -0.2,-0.7 1.3,-0.8 h 0.7 v 6.7 h -0.8 v -5.8 z"
   id="path3" />
		<path
   class="st0"
   d="m 78.7,369.6 c 0,2.3 -0.8,3.5 -2.1,3.5 -1.2,0 -2,-1.2 -2,-3.4 0,-2.2 0.9,-3.5 2.1,-3.5 1.3,0 2,1.3 2,3.4 z m -3.2,0.1 c 0,1.7 0.5,2.7 1.2,2.7 0.8,0 1.2,-1.1 1.2,-2.8 0,-1.6 -0.4,-2.7 -1.2,-2.7 -0.7,0 -1.2,1 -1.2,2.8 z"
   id="path4" />
		<path
   class="st0"
   d="m 83.2,367.2 v 0 l -1.1,0.6 -0.2,-0.7 1.3,-0.8 H 84 v 6.7 h -0.8 z"
   id="path5" />
		<path
   class="st0"
   d="m 92.3,369.6 c 0,2.3 -0.8,3.5 -2.1,3.5 -1.2,0 -2,-1.2 -2,-3.4 0,-2.2 0.9,-3.5 2.1,-3.5 1.2,0 2,1.3 2,3.4 z m -3.3,0.1 c 0,1.7 0.5,2.7 1.2,2.7 0.8,0 1.2,-1.1 1.2,-2.8 0,-1.6 -0.4,-2.7 -1.2,-2.7 -0.7,0 -1.2,1 -1.2,2.8 z"
   id="path6" />
		<path
   class="st0"
   d="m 96.8,367.2 v 0 l -1.1,0.6 -0.2,-0.7 1.3,-0.8 h 0.7 v 6.7 h -0.8 v -5.8 z"
   id="path7" />
		<path
   class="st0"
   d="m 103.5,367.2 v 0 l -1.1,0.6 -0.2,-0.7 1.3,-0.8 h 0.7 v 6.7 h -0.8 v -5.8 z"
   id="path8" />
		<path
   class="st0"
   d="m 110.3,367.2 v 0 l -1.1,0.6 -0.2,-0.7 1.3,-0.8 h 0.7 v 6.7 h -0.8 v -5.8 z"
   id="path9" />
		<path
   class="st0"
   d="m 119.3,369.6 c 0,2.3 -0.8,3.5 -2.1,3.5 -1.2,0 -2,-1.2 -2,-3.4 0,-2.2 0.9,-3.5 2.1,-3.5 1.2,0 2,1.3 2,3.4 z m -3.3,0.1 c 0,1.7 0.5,2.7 1.2,2.7 0.8,0 1.2,-1.1 1.2,-2.8 0,-1.6 -0.4,-2.7 -1.2,-2.7 -0.7,0 -1.2,1 -1.2,2.8 z"
   id="path10" />
		<path
   class="st0"
   d="m 65.2,381.9 c 0,2.3 -0.8,3.5 -2.1,3.5 -1.2,0 -2,-1.2 -2,-3.4 0,-2.2 0.9,-3.5 2.1,-3.5 1.3,0 2,1.3 2,3.4 z m -3.3,0.1 c 0,1.7 0.5,2.7 1.2,2.7 0.8,0 1.2,-1.1 1.2,-2.8 0,-1.6 -0.4,-2.7 -1.2,-2.7 -0.6,0 -1.2,1 -1.2,2.8 z"
   id="path11" />
		<path
   class="st0"
   d="m 69.7,379.5 v 0 l -1.1,0.6 -0.2,-0.7 1.3,-0.8 h 0.7 v 6.7 h -0.8 v -5.8 z"
   id="path12" />
		<path
   class="st0"
   d="m 78.7,381.9 c 0,2.3 -0.8,3.5 -2.1,3.5 -1.2,0 -2,-1.2 -2,-3.4 0,-2.2 0.9,-3.5 2.1,-3.5 1.3,0 2,1.3 2,3.4 z m -3.2,0.1 c 0,1.7 0.5,2.7 1.2,2.7 0.8,0 1.2,-1.1 1.2,-2.8 0,-1.6 -0.4,-2.7 -1.2,-2.7 -0.7,0 -1.2,1 -1.2,2.8 z"
   id="path13" />
		<path
   class="st0"
   d="m 83.2,379.5 v 0 l -1.1,0.6 -0.2,-0.7 1.3,-0.8 H 84 v 6.7 h -0.8 z"
   id="path14" />
		<path
   class="st0"
   d="m 92.3,381.9 c 0,2.3 -0.8,3.5 -2.1,3.5 -1.2,0 -2,-1.2 -2,-3.4 0,-2.2 0.9,-3.5 2.1,-3.5 1.2,0 2,1.3 2,3.4 z M 89,382 c 0,1.7 0.5,2.7 1.2,2.7 0.8,0 1.2,-1.1 1.2,-2.8 0,-1.6 -0.4,-2.7 -1.2,-2.7 -0.7,0 -1.2,1 -1.2,2.8 z"
   id="path15" />
		<path
   class="st0"
   d="m 96.8,379.5 v 0 l -1.1,0.6 -0.2,-0.7 1.3,-0.8 h 0.7 v 6.7 h -0.8 v -5.8 z"
   id="path16" />
		<path
   class="st0"
   d="m 105.8,381.9 c 0,2.3 -0.8,3.5 -2.1,3.5 -1.2,0 -2,-1.2 -2,-3.4 0,-2.2 0.9,-3.5 2.1,-3.5 1.2,0 2,1.3 2,3.4 z m -3.3,0.1 c 0,1.7 0.5,2.7 1.2,2.7 0.8,0 1.2,-1.1 1.2,-2.8 0,-1.6 -0.4,-2.7 -1.2,-2.7 -0.7,0 -1.2,1 -1.2,2.8 z"
   id="path17" />
		<path
   class="st0"
   d="m 112.5,381.9 c 0,2.3 -0.8,3.5 -2.1,3.5 -1.2,0 -2,-1.2 -2,-3.4 0,-2.2 0.9,-3.5 2.1,-3.5 1.3,0 2,1.3 2,3.4 z m -3.3,0.1 c 0,1.7 0.5,2.7 1.2,2.7 0.8,0 1.2,-1.1 1.2,-2.8 0,-1.6 -0.4,-2.7 -1.2,-2.7 -0.7,0 -1.2,1 -1.2,2.8 z"
   id="path18" />
		<path
   class="st0"
   d="m 117,379.5 v 0 l -1.1,0.6 -0.2,-0.7 1.3,-0.8 h 0.7 v 6.7 H 117 Z"
   id="path19" />
	</g>
	<g
   id="g20">
		<path
   class="st0"
   d="m 373.6,395.5 h -91.4 l 4.2,-8.5 -3.8,-6.2 3.7,-5.9 -3.6,-5.8 3.6,-5.5 -4.4,-6.2 h 92.3 l -5.5,5.4 3.5,5.9 -3.6,6 3.6,6 -3.8,6.3 z m -88.1,-2 h 84.6 l -3.5,-5.9 v -1.1 l 3.4,-5.7 -3.4,-5.7 v -0.6 l 0.1,-0.3 3.3,-5.4 -3.4,-5.7 v -0.7 l 0.3,-0.4 2.5,-2.5 h -83.6 l 2.9,4.1 -3.7,5.6 3.6,5.8 -3.7,5.9 3.6,5.8 v 0.5 l -0.1,0.3 z"
   id="path20" />
	</g>
	<g
   id="g38">
		<path
   class="st0"
   d="m 301.4,369.6 c 0,2.3 -0.8,3.5 -2.2,3.5 -1.2,0 -2.1,-1.2 -2.1,-3.4 0,-2.2 0.9,-3.5 2.2,-3.5 1.4,0 2.1,1.3 2.1,3.4 z m -3.4,0.1 c 0,1.7 0.5,2.7 1.3,2.7 0.9,0 1.3,-1.1 1.3,-2.8 0,-1.6 -0.4,-2.7 -1.3,-2.7 -0.8,0 -1.3,1 -1.3,2.8 z"
   id="path21" />
		<path
   class="st0"
   d="m 306.2,367.2 v 0 l -1.1,0.6 -0.2,-0.7 1.4,-0.8 h 0.7 v 6.7 h -0.8 z"
   id="path22" />
		<path
   class="st0"
   d="m 315.7,369.6 c 0,2.3 -0.8,3.5 -2.2,3.5 -1.2,0 -2.1,-1.2 -2.1,-3.4 0,-2.2 0.9,-3.5 2.2,-3.5 1.3,0 2.1,1.3 2.1,3.4 z m -3.5,0.1 c 0,1.7 0.5,2.7 1.3,2.7 0.9,0 1.3,-1.1 1.3,-2.8 0,-1.6 -0.4,-2.7 -1.3,-2.7 -0.7,0 -1.3,1 -1.3,2.8 z"
   id="path23" />
		<path
   class="st0"
   d="m 320.4,367.2 v 0 l -1.1,0.6 -0.2,-0.7 1.4,-0.8 h 0.7 v 6.7 h -0.8 z"
   id="path24" />
		<path
   class="st0"
   d="m 329.9,369.6 c 0,2.3 -0.8,3.5 -2.2,3.5 -1.2,0 -2.1,-1.2 -2.1,-3.4 0,-2.2 0.9,-3.5 2.2,-3.5 1.4,0 2.1,1.3 2.1,3.4 z m -3.4,0.1 c 0,1.7 0.5,2.7 1.3,2.7 0.9,0 1.3,-1.1 1.3,-2.8 0,-1.6 -0.4,-2.7 -1.3,-2.7 -0.8,0 -1.3,1 -1.3,2.8 z"
   id="path25" />
		<path
   class="st0"
   d="m 334.7,367.2 v 0 l -1.1,0.6 -0.2,-0.7 1.4,-0.8 h 0.7 v 6.7 h -0.8 z"
   id="path26" />
		<path
   class="st0"
   d="m 341.8,367.2 v 0 l -1.1,0.6 -0.2,-0.7 1.4,-0.8 h 0.7 v 6.7 h -0.8 z"
   id="path27" />
		<path
   class="st0"
   d="m 348.9,367.2 v 0 l -1.1,0.6 -0.2,-0.7 1.4,-0.8 h 0.7 v 6.7 h -0.8 z"
   id="path28" />
		<path
   class="st0"
   d="m 358.4,369.6 c 0,2.3 -0.8,3.5 -2.2,3.5 -1.2,0 -2.1,-1.2 -2.1,-3.4 0,-2.2 0.9,-3.5 2.2,-3.5 1.4,0 2.1,1.3 2.1,3.4 z m -3.4,0.1 c 0,1.7 0.5,2.7 1.3,2.7 0.9,0 1.3,-1.1 1.3,-2.8 0,-1.6 -0.4,-2.7 -1.3,-2.7 -0.8,0 -1.3,1 -1.3,2.8 z"
   id="path29" />
		<path
   class="st0"
   d="m 301.4,381.9 c 0,2.3 -0.8,3.5 -2.2,3.5 -1.2,0 -2.1,-1.2 -2.1,-3.4 0,-2.2 0.9,-3.5 2.2,-3.5 1.4,0 2.1,1.3 2.1,3.4 z M 298,382 c 0,1.7 0.5,2.7 1.3,2.7 0.9,0 1.3,-1.1 1.3,-2.8 0,-1.6 -0.4,-2.7 -1.3,-2.7 -0.8,0 -1.3,1 -1.3,2.8 z"
   id="path30" />
		<path
   class="st0"
   d="m 306.2,379.5 v 0 l -1.1,0.6 -0.2,-0.7 1.4,-0.8 h 0.7 v 6.7 h -0.8 z"
   id="path31" />
		<path
   class="st0"
   d="m 315.7,381.9 c 0,2.3 -0.8,3.5 -2.2,3.5 -1.2,0 -2.1,-1.2 -2.1,-3.4 0,-2.2 0.9,-3.5 2.2,-3.5 1.3,0 2.1,1.3 2.1,3.4 z m -3.5,0.1 c 0,1.7 0.5,2.7 1.3,2.7 0.9,0 1.3,-1.1 1.3,-2.8 0,-1.6 -0.4,-2.7 -1.3,-2.7 -0.7,0 -1.3,1 -1.3,2.8 z"
   id="path32" />
		<path
   class="st0"
   d="m 320.4,379.5 v 0 l -1.1,0.6 -0.2,-0.7 1.4,-0.8 h 0.7 v 6.7 h -0.8 z"
   id="path33" />
		<path
   class="st0"
   d="m 329.9,381.9 c 0,2.3 -0.8,3.5 -2.2,3.5 -1.2,0 -2.1,-1.2 -2.1,-3.4 0,-2.2 0.9,-3.5 2.2,-3.5 1.4,0 2.1,1.3 2.1,3.4 z m -3.4,0.1 c 0,1.7 0.5,2.7 1.3,2.7 0.9,0 1.3,-1.1 1.3,-2.8 0,-1.6 -0.4,-2.7 -1.3,-2.7 -0.8,0 -1.3,1 -1.3,2.8 z"
   id="path34" />
		<path
   class="st0"
   d="m 334.7,379.5 v 0 l -1.1,0.6 -0.2,-0.7 1.4,-0.8 h 0.7 v 6.7 h -0.8 z"
   id="path35" />
		<path
   class="st0"
   d="m 344.2,381.9 c 0,2.3 -0.8,3.5 -2.2,3.5 -1.2,0 -2.1,-1.2 -2.1,-3.4 0,-2.2 0.9,-3.5 2.2,-3.5 1.3,0 2.1,1.3 2.1,3.4 z m -3.5,0.1 c 0,1.7 0.5,2.7 1.3,2.7 0.9,0 1.3,-1.1 1.3,-2.8 0,-1.6 -0.4,-2.7 -1.3,-2.7 -0.7,0 -1.3,1 -1.3,2.8 z"
   id="path36" />
		<path
   class="st0"
   d="m 351.3,381.9 c 0,2.3 -0.8,3.5 -2.2,3.5 -1.2,0 -2.1,-1.2 -2.1,-3.4 0,-2.2 0.9,-3.5 2.2,-3.5 1.3,0 2.1,1.3 2.1,3.4 z m -3.5,0.1 c 0,1.7 0.5,2.7 1.3,2.7 0.9,0 1.3,-1.1 1.3,-2.8 0,-1.6 -0.4,-2.7 -1.3,-2.7 -0.7,0 -1.3,1 -1.3,2.8 z"
   id="path37" />
		<path
   class="st0"
   d="m 356.1,379.5 v 0 l -1.1,0.6 -0.2,-0.7 1.4,-0.8 h 0.7 v 6.7 h -0.8 z"
   id="path38" />
	</g>
	<g
   id="g39">
		<path
   class="st0"
   d="M 266.2,395.5 H 151.6 l 3.9,-8.4 -4.2,-6.3 5.2,-5.8 -4.6,-5.8 4.6,-5.5 -5.5,-6.2 h 115.9 l -6,5.4 4.5,5.9 -4.6,6 4.6,6 -4.8,6.3 z m -111.5,-2 h 107.8 l -3.9,-5.9 v -1.2 l 4.3,-5.6 -4.3,-5.6 v -0.7 l 0.2,-0.4 4.1,-5.3 -4.3,-5.6 v -0.8 l 0.3,-0.4 2.7,-2.5 H 155.4 l 3.7,4.1 -4.6,5.6 4.6,5.8 -5.3,5.9 3.8,5.7 v 0.5 l -0.1,0.2 z"
   id="path39" />
	</g>
	<g
   id="g63">
		<path
   class="st0"
   d="m 172.5,369.6 c 0,2.3 -0.8,3.5 -2.2,3.5 -1.3,0 -2.1,-1.2 -2.1,-3.4 0,-2.2 0.9,-3.5 2.2,-3.5 1.3,0 2.1,1.3 2.1,3.4 z m -3.5,0.1 c 0,1.7 0.5,2.7 1.3,2.7 0.9,0 1.3,-1.1 1.3,-2.8 0,-1.6 -0.4,-2.7 -1.3,-2.7 -0.7,0 -1.3,1 -1.3,2.8 z"
   id="path40" />
		<path
   class="st0"
   d="m 177.3,367.2 v 0 l -1.1,0.6 -0.2,-0.7 1.4,-0.8 h 0.7 v 6.7 h -0.8 z"
   id="path41" />
		<path
   class="st0"
   d="m 186.9,369.6 c 0,2.3 -0.8,3.5 -2.2,3.5 -1.3,0 -2.1,-1.2 -2.1,-3.4 0,-2.2 0.9,-3.5 2.2,-3.5 1.3,0 2.1,1.3 2.1,3.4 z m -3.5,0.1 c 0,1.7 0.5,2.7 1.3,2.7 0.9,0 1.3,-1.1 1.3,-2.8 0,-1.6 -0.4,-2.7 -1.3,-2.7 -0.8,0 -1.3,1 -1.3,2.8 z"
   id="path42" />
		<path
   class="st0"
   d="m 191.7,367.2 v 0 l -1.1,0.6 -0.2,-0.7 1.4,-0.8 h 0.7 v 6.7 h -0.8 z"
   id="path43" />
		<path
   class="st0"
   d="m 201.2,369.6 c 0,2.3 -0.8,3.5 -2.2,3.5 -1.3,0 -2.1,-1.2 -2.1,-3.4 0,-2.2 0.9,-3.5 2.2,-3.5 1.4,0 2.1,1.3 2.1,3.4 z m -3.5,0.1 c 0,1.7 0.5,2.7 1.3,2.7 0.9,0 1.3,-1.1 1.3,-2.8 0,-1.6 -0.4,-2.7 -1.3,-2.7 -0.7,0 -1.3,1 -1.3,2.8 z"
   id="path44" />
		<path
   class="st0"
   d="m 206,367.2 v 0 l -1.1,0.6 -0.2,-0.7 1.4,-0.8 h 0.7 V 373 H 206 Z"
   id="path45" />
		<path
   class="st0"
   d="m 213.2,367.2 v 0 l -1.1,0.6 -0.2,-0.7 1.4,-0.8 h 0.7 v 6.7 h -0.8 z"
   id="path46" />
		<path
   class="st0"
   d="m 220.4,367.2 v 0 l -1.1,0.6 -0.2,-0.7 1.4,-0.8 h 0.7 v 6.7 h -0.8 z"
   id="path47" />
		<path
   class="st0"
   d="m 230,369.6 c 0,2.3 -0.8,3.5 -2.2,3.5 -1.3,0 -2.1,-1.2 -2.1,-3.4 0,-2.2 0.9,-3.5 2.2,-3.5 1.3,0 2.1,1.3 2.1,3.4 z m -3.5,0.1 c 0,1.7 0.5,2.7 1.3,2.7 0.9,0 1.3,-1.1 1.3,-2.8 0,-1.6 -0.4,-2.7 -1.3,-2.7 -0.8,0 -1.3,1 -1.3,2.8 z"
   id="path48" />
		<path
   class="st0"
   d="m 237.2,369.6 c 0,2.3 -0.8,3.5 -2.2,3.5 -1.3,0 -2.1,-1.2 -2.1,-3.4 0,-2.2 0.9,-3.5 2.2,-3.5 1.3,0 2.1,1.3 2.1,3.4 z m -3.5,0.1 c 0,1.7 0.5,2.7 1.3,2.7 0.9,0 1.3,-1.1 1.3,-2.8 0,-1.6 -0.4,-2.7 -1.3,-2.7 -0.8,0 -1.3,1 -1.3,2.8 z"
   id="path49" />
		<path
   class="st0"
   d="m 242,367.2 v 0 l -1.1,0.6 -0.2,-0.7 1.4,-0.8 h 0.7 V 373 H 242 Z"
   id="path50" />
		<path
   class="st0"
   d="m 251.5,369.6 c 0,2.3 -0.8,3.5 -2.2,3.5 -1.3,0 -2.1,-1.2 -2.1,-3.4 0,-2.2 0.9,-3.5 2.2,-3.5 1.4,0 2.1,1.3 2.1,3.4 z m -3.5,0.1 c 0,1.7 0.5,2.7 1.3,2.7 0.9,0 1.3,-1.1 1.3,-2.8 0,-1.6 -0.4,-2.7 -1.3,-2.7 -0.7,0 -1.3,1 -1.3,2.8 z"
   id="path51" />
		<path
   class="st0"
   d="m 169.1,379.5 v 0 l -1.1,0.6 -0.2,-0.7 1.4,-0.8 h 0.7 v 6.7 h -0.8 z"
   id="path52" />
		<path
   class="st0"
   d="m 178.6,381.9 c 0,2.3 -0.8,3.5 -2.2,3.5 -1.3,0 -2.1,-1.2 -2.1,-3.4 0,-2.2 0.9,-3.5 2.2,-3.5 1.4,0 2.1,1.3 2.1,3.4 z m -3.5,0.1 c 0,1.7 0.5,2.7 1.3,2.7 0.9,0 1.3,-1.1 1.3,-2.8 0,-1.6 -0.4,-2.7 -1.3,-2.7 -0.7,0 -1.3,1 -1.3,2.8 z"
   id="path53" />
		<path
   class="st0"
   d="m 183.4,379.5 v 0 l -1.1,0.6 -0.2,-0.7 1.4,-0.8 h 0.7 v 6.7 h -0.8 z"
   id="path54" />
		<path
   class="st0"
   d="m 193,381.9 c 0,2.3 -0.8,3.5 -2.2,3.5 -1.3,0 -2.1,-1.2 -2.1,-3.4 0,-2.2 0.9,-3.5 2.2,-3.5 1.3,0 2.1,1.3 2.1,3.4 z m -3.5,0.1 c 0,1.7 0.5,2.7 1.3,2.7 0.9,0 1.3,-1.1 1.3,-2.8 0,-1.6 -0.4,-2.7 -1.3,-2.7 -0.7,0 -1.3,1 -1.3,2.8 z"
   id="path55" />
		<path
   class="st0"
   d="m 200.2,381.9 c 0,2.3 -0.8,3.5 -2.2,3.5 -1.3,0 -2.1,-1.2 -2.1,-3.4 0,-2.2 0.9,-3.5 2.2,-3.5 1.3,0 2.1,1.3 2.1,3.4 z m -3.5,0.1 c 0,1.7 0.5,2.7 1.3,2.7 0.9,0 1.3,-1.1 1.3,-2.8 0,-1.6 -0.4,-2.7 -1.3,-2.7 -0.7,0 -1.3,1 -1.3,2.8 z"
   id="path56" />
		<path
   class="st0"
   d="m 205,379.5 v 0 l -1.1,0.6 -0.2,-0.7 1.4,-0.8 h 0.7 v 6.7 H 205 Z"
   id="path57" />
		<path
   class="st0"
   d="m 214.6,381.9 c 0,2.3 -0.8,3.5 -2.2,3.5 -1.3,0 -2.1,-1.2 -2.1,-3.4 0,-2.2 0.9,-3.5 2.2,-3.5 1.3,0 2.1,1.3 2.1,3.4 z m -3.5,0.1 c 0,1.7 0.5,2.7 1.3,2.7 0.9,0 1.3,-1.1 1.3,-2.8 0,-1.6 -0.4,-2.7 -1.3,-2.7 -0.8,0 -1.3,1 -1.3,2.8 z"
   id="path58" />
		<path
   class="st0"
   d="m 219.4,379.5 v 0 l -1.1,0.6 -0.2,-0.7 1.4,-0.8 h 0.7 v 6.7 h -0.8 z"
   id="path59" />
		<path
   class="st0"
   d="m 228.9,381.9 c 0,2.3 -0.8,3.5 -2.2,3.5 -1.3,0 -2.1,-1.2 -2.1,-3.4 0,-2.2 0.9,-3.5 2.2,-3.5 1.4,0 2.1,1.3 2.1,3.4 z m -3.5,0.1 c 0,1.7 0.5,2.7 1.3,2.7 0.9,0 1.3,-1.1 1.3,-2.8 0,-1.6 -0.4,-2.7 -1.3,-2.7 -0.7,0 -1.3,1 -1.3,2.8 z"
   id="path60" />
		<path
   class="st0"
   d="m 233.7,379.5 v 0 l -1.1,0.6 -0.2,-0.7 1.4,-0.8 h 0.7 v 6.7 h -0.8 z"
   id="path61" />
		<path
   class="st0"
   d="m 243.3,381.9 c 0,2.3 -0.8,3.5 -2.2,3.5 -1.3,0 -2.1,-1.2 -2.1,-3.4 0,-2.2 0.9,-3.5 2.2,-3.5 1.3,0 2.1,1.3 2.1,3.4 z m -3.5,0.1 c 0,1.7 0.5,2.7 1.3,2.7 0.9,0 1.3,-1.1 1.3,-2.8 0,-1.6 -0.4,-2.7 -1.3,-2.7 -0.7,0 -1.3,1 -1.3,2.8 z"
   id="path62" />
		<path
   class="st0"
   d="m 250.2,379.5 v 0 l -1.1,0.6 -0.2,-0.7 1.4,-0.8 h 0.7 v 6.7 h -0.8 z"
   id="path63" />
	</g>
	<g
   id="g64">
		<path
   class="st1"
   d="m 231.7,110.9 c 0,-0.4 0,-0.6 0,-0.9 0,-16.3 -13.1,-29.4 -29.4,-29.4 -11.8,0 -21.8,6.8 -26.6,16.7 -2.1,-0.9 -4.4,-1.7 -6.8,-1.7 -7.6,0 -13.7,5.5 -15,12.7 -8.9,3 -15.4,11.6 -15.4,21.4 0,12.5 10.2,22.8 22.8,22.8 h 70.4 v 0 c 11.4,0 20.7,-9.3 20.7,-20.9 0.2,-11.4 -9.1,-20.7 -20.7,-20.7 z"
   id="path64" />
	</g>
	<g
   id="g80">
		<path
   class="st2"
   d="m 168.4,122.2 c 0.7,0.4 1.7,0.8 2.7,0.8 1.6,0 2.5,-0.8 2.5,-2 0,-1.1 -0.6,-1.7 -2.2,-2.3 -1.9,-0.7 -3.1,-1.7 -3.1,-3.3 0,-1.8 1.5,-3.2 3.8,-3.2 1.2,0 2.1,0.3 2.6,0.6 l -0.4,1.2 c -0.4,-0.2 -1.2,-0.6 -2.2,-0.6 -1.6,0 -2.2,1 -2.2,1.8 0,1.1 0.7,1.6 2.3,2.3 2,0.8 3,1.7 3,3.5 0,1.8 -1.3,3.4 -4.1,3.4 -1.1,0 -2.4,-0.3 -3,-0.8 z"
   id="path65" />
		<path
   class="st2"
   d="m 177.1,118.4 c 0,-1.1 0,-2 -0.1,-2.8 h 1.4 l 0.1,1.4 v 0 c 0.6,-1 1.6,-1.6 3,-1.6 2,0 3.6,1.7 3.6,4.3 0,3 -1.8,4.5 -3.8,4.5 -1.1,0 -2.1,-0.5 -2.6,-1.3 v 0 4.6 h -1.5 v -9.1 z m 1.5,2.2 c 0,0.2 0,0.4 0.1,0.6 0.3,1.1 1.2,1.8 2.3,1.8 1.6,0 2.6,-1.3 2.6,-3.3 0,-1.7 -0.9,-3.1 -2.5,-3.1 -1,0 -2,0.8 -2.3,1.9 -0.1,0.2 -0.1,0.4 -0.1,0.6 v 1.5 z"
   id="path66" />
		<path
   class="st2"
   d="m 191.7,124.1 -0.1,-1.1 h -0.1 c -0.5,0.7 -1.4,1.3 -2.6,1.3 -1.7,0 -2.6,-1.2 -2.6,-2.4 0,-2 1.8,-3.2 5.1,-3.1 v -0.2 c 0,-0.7 -0.2,-2 -1.9,-2 -0.8,0 -1.6,0.2 -2.2,0.6 l -0.3,-1 c 0.7,-0.5 1.7,-0.8 2.8,-0.8 2.6,0 3.2,1.8 3.2,3.5 v 3.2 c 0,0.7 0,1.4 0.1,2 z m -0.2,-4.3 c -1.7,0 -3.6,0.3 -3.6,1.9 0,1 0.7,1.5 1.4,1.5 1.1,0 1.8,-0.7 2,-1.4 0.1,-0.2 0.1,-0.3 0.1,-0.5 v -1.5 z"
   id="path67" />
		<path
   class="st2"
   d="m 201.5,123.8 c -0.4,0.2 -1.3,0.5 -2.4,0.5 -2.5,0 -4.2,-1.7 -4.2,-4.3 0,-2.6 1.8,-4.5 4.5,-4.5 0.9,0 1.7,0.2 2.1,0.4 l -0.3,1.2 c -0.4,-0.2 -0.9,-0.4 -1.8,-0.4 -1.9,0 -3,1.4 -3,3.2 0,2 1.3,3.2 2.9,3.2 0.9,0 1.4,-0.2 1.9,-0.4 z"
   id="path68" />
		<path
   class="st2"
   d="m 204,120.1 c 0,2.1 1.4,2.9 2.9,2.9 1.1,0 1.8,-0.2 2.3,-0.4 l 0.3,1.1 c -0.5,0.2 -1.5,0.5 -2.8,0.5 -2.6,0 -4.2,-1.7 -4.2,-4.3 0,-2.5 1.5,-4.6 4,-4.6 2.8,0 3.5,2.4 3.5,4 0,0.3 0,0.6 -0.1,0.7 H 204 Z m 4.5,-1.1 c 0,-1 -0.4,-2.5 -2.1,-2.5 -1.6,0 -2.2,1.4 -2.4,2.5 z"
   id="path69" />
		<path
   class="st2"
   d="m 218.4,114.2 v 0 l -2,1.1 -0.3,-1.2 2.5,-1.3 h 1.3 v 11.3 h -1.5 z"
   id="path70" />
		<path
   class="st2"
   d="m 172,139.2 c -1.1,-0.3 -2.1,-0.6 -3,-0.9 -0.2,-0.1 -0.3,-0.1 -0.5,-0.1 -1.9,-0.1 -3.5,-1.4 -3.5,-4 0,-2.5 1.5,-4.1 3.7,-4.1 2.1,0 3.5,1.7 3.5,4 0,2 -0.9,3.3 -2.2,3.8 v 0 c 0.8,0.2 1.6,0.4 2.3,0.5 z m -0.8,-5.1 c 0,-1.6 -0.8,-3.2 -2.5,-3.2 -1.7,0 -2.5,1.6 -2.5,3.3 0,1.7 0.9,3.2 2.5,3.2 1.6,-0.1 2.5,-1.5 2.5,-3.3 z"
   id="path71" />
		<path
   class="st2"
   d="m 178.3,136.5 c 0,0.6 0,1.1 0,1.5 h -0.9 l -0.1,-0.9 v 0 c -0.3,0.5 -0.9,1 -1.9,1 -0.9,0 -1.9,-0.5 -1.9,-2.5 v -3.3 h 1 v 3.1 c 0,1.1 0.3,1.8 1.3,1.8 0.7,0 1.2,-0.5 1.3,-0.9 0.1,-0.2 0.1,-0.3 0.1,-0.5 v -3.5 h 1 v 4.2 z"
   id="path72" />
		<path
   class="st2"
   d="m 185.1,135.2 c 0,2.1 -1.4,3 -2.8,3 -1.5,0 -2.7,-1.1 -2.7,-2.9 0,-1.9 1.2,-3 2.8,-3 1.6,0 2.7,1.2 2.7,2.9 z m -4.5,0 c 0,1.2 0.7,2.2 1.7,2.2 1,0 1.7,-0.9 1.7,-2.2 0,-1 -0.5,-2.2 -1.7,-2.2 -1.2,0.1 -1.7,1.2 -1.7,2.2 z"
   id="path73" />
		<path
   class="st2"
   d="m 187.6,130.8 v 1.6 h 1.5 v 0.8 h -1.5 v 3 c 0,0.7 0.2,1.1 0.8,1.1 0.3,0 0.5,0 0.6,-0.1 v 0.8 c -0.2,0.1 -0.5,0.1 -0.9,0.1 -0.5,0 -0.9,-0.2 -1.1,-0.4 -0.3,-0.3 -0.4,-0.8 -0.4,-1.5 v -3.1 h -0.9 v -0.8 h 0.9 V 131 Z"
   id="path74" />
		<path
   class="st2"
   d="m 193.3,138 -0.1,-0.7 v 0 c -0.3,0.4 -0.9,0.8 -1.7,0.8 -1.1,0 -1.7,-0.8 -1.7,-1.6 0,-1.4 1.2,-2.1 3.4,-2.1 v -0.1 c 0,-0.5 -0.1,-1.3 -1.3,-1.3 -0.5,0 -1.1,0.2 -1.5,0.4 l -0.2,-0.7 c 0.5,-0.3 1.1,-0.5 1.8,-0.5 1.7,0 2.1,1.2 2.1,2.3 v 2.1 c 0,0.5 0,1 0.1,1.3 h -0.9 z m -0.1,-2.8 c -1.1,0 -2.4,0.2 -2.4,1.3 0,0.7 0.4,1 1,1 0.7,0 1.2,-0.5 1.4,-0.9 0,-0.1 0.1,-0.2 0.1,-0.3 v -1.1 z"
   id="path75" />
		<path
   class="st2"
   d="m 195.6,133.3 c 0,-0.4 0.3,-0.7 0.7,-0.7 0.4,0 0.7,0.3 0.7,0.7 0,0.4 -0.3,0.7 -0.7,0.7 -0.4,0.1 -0.7,-0.2 -0.7,-0.7 z m 0,4.1 c 0,-0.4 0.3,-0.7 0.7,-0.7 0.4,0 0.7,0.3 0.7,0.7 0,0.4 -0.3,0.7 -0.7,0.7 -0.4,0.1 -0.7,-0.2 -0.7,-0.7 z"
   id="path76" />
		<path
   class="st2"
   d="m 200.4,138 v -0.6 l 0.8,-0.8 c 1.9,-1.8 2.8,-2.8 2.8,-4 0,-0.8 -0.4,-1.5 -1.5,-1.5 -0.7,0 -1.3,0.3 -1.6,0.6 l -0.3,-0.7 c 0.5,-0.4 1.3,-0.8 2.1,-0.8 1.6,0 2.3,1.1 2.3,2.2 0,1.4 -1,2.5 -2.6,4.1 l -0.6,0.6 v 0 h 3.4 v 0.8 h -4.8 z"
   id="path77" />
		<path
   class="st2"
   d="m 211.4,134.2 c 0,2.6 -1,4 -2.6,4 -1.5,0 -2.5,-1.4 -2.5,-3.9 0,-2.5 1.1,-3.9 2.6,-3.9 1.6,0 2.5,1.4 2.5,3.8 z m -4.1,0.1 c 0,2 0.6,3.1 1.5,3.1 1,0 1.5,-1.2 1.5,-3.2 0,-1.9 -0.5,-3.1 -1.5,-3.1 -0.9,0 -1.5,1.1 -1.5,3.2 z"
   id="path78" />
		<path
   class="st2"
   d="m 216.1,131.1 h -2.4 v -0.9 h 5.8 v 0.9 h -2.4 v 7 h -1 z"
   id="path79" />
		<path
   class="st2"
   d="m 220.4,130.3 c 0.4,-0.1 1.1,-0.2 1.8,-0.2 1,0 1.7,0.2 2.2,0.6 0.4,0.3 0.7,0.8 0.7,1.4 0,0.8 -0.5,1.4 -1.3,1.7 v 0 c 0.7,0.2 1.6,0.8 1.6,2 0,0.7 -0.3,1.2 -0.7,1.6 -0.5,0.5 -1.4,0.7 -2.7,0.7 -0.7,0 -1.2,0 -1.6,-0.1 z m 1,3.2 h 0.9 c 1.1,0 1.7,-0.6 1.7,-1.3 0,-0.9 -0.7,-1.3 -1.7,-1.3 -0.5,0 -0.7,0 -0.9,0.1 z m 0,3.8 c 0.2,0 0.5,0 0.8,0 1,0 2,-0.4 2,-1.5 0,-1.1 -0.9,-1.5 -2,-1.5 h -0.8 z"
   id="path80" />
	</g>
	<g
   id="g97">
		<path
   d="m 6.6,10 c 0.3,0 0.8,-0.1 1.3,-0.1 0.7,0 1.2,0.1 1.6,0.4 0.3,0.2 0.4,0.6 0.4,1 0,0.7 -0.4,1.2 -1,1.4 v 0 c 0.4,0.1 0.7,0.5 0.8,1.1 0.2,0.8 0.3,1.3 0.4,1.5 H 9.3 C 9.2,15.1 9.1,14.7 8.9,14 8.7,13.3 8.5,13 7.8,13 H 7.2 v 2.3 H 6.6 Z m 0.6,2.5 H 8 c 0.7,0 1.2,-0.4 1.2,-1 0,-0.7 -0.5,-1 -1.2,-1 -0.3,0 -0.6,0 -0.7,0.1 v 1.9 z"
   id="path81" />
		<path
   d="m 11.3,13.5 c 0,1 0.6,1.3 1.3,1.3 0.5,0 0.8,-0.1 1.1,-0.2 l 0.1,0.5 c -0.2,0.1 -0.7,0.2 -1.3,0.2 -1.2,0 -1.9,-0.8 -1.9,-2 0,-1.2 0.7,-2.1 1.8,-2.1 1.3,0 1.6,1.1 1.6,1.8 0,0.1 0,0.3 0,0.3 h -2.7 z m 2,-0.5 c 0,-0.4 -0.2,-1.1 -1,-1.1 -0.7,0 -1,0.7 -1.1,1.1 z"
   id="path82" />
		<path
   d="m 17.5,14.8 v 0 c -0.2,0.4 -0.7,0.7 -1.3,0.7 -0.9,0 -1.6,-0.8 -1.6,-2 0,-1.4 0.9,-2.1 1.8,-2.1 0.6,0 1,0.3 1.2,0.7 v 0 -0.6 h 0.7 c 0,0.3 0,0.7 0,1.1 V 17 h -0.7 v -2.2 z m 0,-1.7 c 0,-0.1 0,-0.2 0,-0.3 -0.1,-0.4 -0.5,-0.8 -1,-0.8 -0.7,0 -1.2,0.6 -1.2,1.5 0,0.8 0.4,1.4 1.1,1.4 0.5,0 0.8,-0.3 1,-0.8 0,-0.1 0.1,-0.2 0.1,-0.3 z"
   id="path83" />
		<path
   d="m 22.6,14.3 c 0,0.4 0,0.8 0,1.1 H 22 v -0.6 0 c -0.2,0.3 -0.6,0.7 -1.3,0.7 -0.6,0 -1.3,-0.3 -1.3,-1.7 V 11.5 H 20 v 2.1 c 0,0.7 0.2,1.2 0.9,1.2 0.5,0 0.8,-0.3 0.9,-0.6 0,-0.1 0.1,-0.2 0.1,-0.4 v -2.4 h 0.7 z"
   id="path84" />
		<path
   d="m 24.2,13.5 c 0,1 0.6,1.3 1.3,1.3 0.5,0 0.8,-0.1 1.1,-0.2 l 0.1,0.5 c -0.2,0.1 -0.7,0.2 -1.3,0.2 -1.2,0 -1.9,-0.8 -1.9,-2 0,-1.2 0.7,-2.1 1.8,-2.1 1.3,0 1.6,1.1 1.6,1.8 0,0.1 0,0.3 0,0.3 h -2.7 z m 2,-0.5 c 0,-0.4 -0.2,-1.1 -1,-1.1 -0.7,0 -1,0.7 -1.1,1.1 z"
   id="path85" />
		<path
   d="m 27.7,14.6 c 0.2,0.1 0.6,0.3 0.9,0.3 0.5,0 0.8,-0.3 0.8,-0.6 0,-0.3 -0.2,-0.5 -0.7,-0.7 -0.7,-0.2 -1,-0.6 -1,-1.1 0,-0.6 0.5,-1.1 1.3,-1.1 0.4,0 0.7,0.1 1,0.2 l -0.2,0.5 C 29.6,12 29.4,11.9 29,11.9 c -0.4,0 -0.6,0.2 -0.6,0.5 0,0.3 0.2,0.5 0.7,0.7 0.7,0.3 1,0.6 1,1.2 0,0.7 -0.5,1.2 -1.4,1.2 -0.4,0 -0.8,-0.1 -1.1,-0.3 z"
   id="path86" />
		<path
   d="m 31.8,10.4 v 1.1 h 1 V 12 h -1 v 2.1 c 0,0.5 0.1,0.8 0.5,0.8 0.2,0 0.3,0 0.4,0 v 0.5 c -0.1,0.1 -0.4,0.1 -0.6,0.1 -0.3,0 -0.6,-0.1 -0.8,-0.3 C 31.1,15 31,14.6 31,14.2 V 12 H 30.4 V 11.5 H 31 v -0.9 z"
   id="path87" />
		<path
   d="m 34.4,10.4 c 0,0.2 -0.2,0.4 -0.4,0.4 -0.2,0 -0.4,-0.2 -0.4,-0.4 0,-0.2 0.2,-0.4 0.4,-0.4 0.2,0 0.4,0.1 0.4,0.4 z m -0.8,5 v -3.9 h 0.7 v 3.9 z"
   id="path88" />
		<path
   d="m 35.5,12.5 c 0,-0.4 0,-0.7 0,-1 h 0.6 v 0.6 0 c 0.2,-0.4 0.6,-0.7 1.3,-0.7 0.5,0 1.4,0.3 1.4,1.6 v 2.3 h -0.7 v -2.2 c 0,-0.6 -0.2,-1.1 -0.9,-1.1 -0.5,0 -0.8,0.3 -0.9,0.7 0,0.1 0,0.2 0,0.3 v 2.3 h -0.7 v -2.8 z"
   id="path89" />
		<path
   d="m 43.2,11.5 c 0,0.3 0,0.6 0,1.1 v 2.2 c 0,0.9 -0.2,1.4 -0.6,1.8 -0.4,0.4 -0.9,0.5 -1.4,0.5 -0.5,0 -1,-0.1 -1.3,-0.3 l 0.2,-0.5 c 0.3,0.2 0.7,0.3 1.1,0.3 0.7,0 1.2,-0.4 1.2,-1.4 v -0.4 0 c -0.2,0.4 -0.6,0.6 -1.2,0.6 -1,0 -1.6,-0.8 -1.6,-1.9 0,-1.3 0.9,-2.1 1.7,-2.1 0.7,0 1,0.4 1.2,0.7 v 0 -0.6 z M 42.5,13 c 0,-0.1 0,-0.2 0,-0.3 -0.1,-0.4 -0.5,-0.7 -1,-0.7 -0.7,0 -1.2,0.6 -1.2,1.5 0,0.8 0.4,1.4 1.1,1.4 0.4,0 0.8,-0.3 1,-0.7 0,-0.1 0.1,-0.3 0.1,-0.4 z"
   id="path90" />
		<path
   d="m 12.1,24.2 c 0.2,0.1 0.6,0.3 0.9,0.3 0.5,0 0.8,-0.3 0.8,-0.6 0,-0.3 -0.2,-0.5 -0.7,-0.7 -0.7,-0.2 -1,-0.6 -1,-1.1 0,-0.6 0.5,-1.1 1.3,-1.1 0.4,0 0.7,0.1 1,0.2 l -0.2,0.5 c -0.2,-0.1 -0.4,-0.2 -0.8,-0.2 -0.4,0 -0.6,0.2 -0.6,0.5 0,0.3 0.2,0.5 0.7,0.7 0.7,0.3 1,0.6 1,1.2 0,0.7 -0.5,1.2 -1.4,1.2 -0.4,0 -0.8,-0.1 -1.1,-0.3 z"
   id="path91" />
		<path
   d="m 18.6,23.9 c 0,0.4 0,0.8 0,1.1 H 18 v -0.6 0 c -0.2,0.3 -0.6,0.7 -1.3,0.7 -0.6,0 -1.3,-0.3 -1.3,-1.7 V 21.1 H 16 v 2.1 c 0,0.7 0.2,1.2 0.9,1.2 0.5,0 0.8,-0.3 0.9,-0.6 0,-0.1 0.1,-0.2 0.1,-0.4 V 21 h 0.7 z"
   id="path92" />
		<path
   d="m 19.8,22.3 c 0,-0.5 0,-0.9 0,-1.3 h 0.6 v 0.7 0 c 0.3,-0.5 0.7,-0.8 1.4,-0.8 0.9,0 1.6,0.8 1.6,2 0,1.4 -0.8,2.1 -1.8,2.1 -0.5,0 -1,-0.2 -1.2,-0.6 v 0 2.1 h -0.7 v -4.2 z m 0.7,1.1 c 0,0.1 0,0.2 0,0.3 0.1,0.5 0.6,0.8 1.1,0.8 0.7,0 1.2,-0.6 1.2,-1.5 0,-0.8 -0.4,-1.4 -1.2,-1.4 -0.5,0 -0.9,0.3 -1.1,0.9 0,0.1 0,0.2 0,0.3 z"
   id="path93" />
		<path
   d="m 24.3,22.3 c 0,-0.5 0,-0.9 0,-1.3 h 0.6 v 0.7 0 c 0.3,-0.5 0.7,-0.8 1.4,-0.8 0.9,0 1.6,0.8 1.6,2 0,1.4 -0.8,2.1 -1.8,2.1 -0.5,0 -1,-0.2 -1.2,-0.6 v 0 2.1 h -0.7 v -4.2 z m 0.7,1.1 c 0,0.1 0,0.2 0,0.3 0.1,0.5 0.6,0.8 1.1,0.8 0.7,0 1.2,-0.6 1.2,-1.5 0,-0.8 -0.4,-1.4 -1.2,-1.4 -0.5,0 -0.9,0.3 -1.1,0.9 0,0.1 0,0.2 0,0.3 z"
   id="path94" />
		<path
   d="m 32.4,23 c 0,1.4 -1,2.1 -1.9,2.1 -1,0 -1.9,-0.8 -1.9,-2 0,-1.3 0.8,-2.1 1.9,-2.1 1.1,0 1.9,0.8 1.9,2 z m -3.1,0 c 0,0.8 0.5,1.5 1.2,1.5 0.7,0 1.2,-0.6 1.2,-1.5 0,-0.7 -0.3,-1.5 -1.2,-1.5 -0.8,0 -1.2,0.8 -1.2,1.5 z"
   id="path95" />
		<path
   d="m 33.3,22.3 c 0,-0.5 0,-0.8 0,-1.2 h 0.6 v 0.8 0 c 0.2,-0.5 0.6,-0.8 1.1,-0.8 0.1,0 0.1,0 0.2,0 v 0.7 c -0.1,0 -0.1,0 -0.2,0 -0.5,0 -0.8,0.4 -0.9,0.9 0,0.1 0,0.2 0,0.3 v 2.1 h -0.7 v -2.8 z"
   id="path96" />
		<path
   d="m 36.9,20 v 1.1 h 1 v 0.5 h -1 v 2.1 c 0,0.5 0.1,0.8 0.5,0.8 0.2,0 0.3,0 0.4,0 V 25 c -0.1,0 -0.3,0 -0.6,0 -0.3,0 -0.6,-0.1 -0.8,-0.3 -0.2,-0.2 -0.3,-0.6 -0.3,-1 v -2.1 h -0.6 v -0.5 h 0.6 v -0.9 z"
   id="path97" />
	</g>
	<g
   id="g98">
		<path
   class="st1"
   d="m 345.1,119.8 c 0,-0.3 0,-0.4 0,-0.7 0,-12.3 -9.9,-22.3 -22.3,-22.3 -8.9,0 -16.5,5.2 -20.1,12.6 -1.6,-0.7 -3.3,-1.3 -5.2,-1.3 -5.7,0 -10.3,4.2 -11.3,9.6 -6.7,2.3 -11.6,8.8 -11.6,16.2 0,9.5 7.8,17.2 17.2,17.2 h 53.3 v 0 c 8.6,0 15.7,-7 15.7,-15.8 0.1,-8.5 -7,-15.5 -15.7,-15.5 z"
   id="path98" />
	</g>
	<g
   id="g113">
		<path
   class="st2"
   d="m 297.3,127.1 c 0.5,0.3 1.3,0.6 2,0.6 1.2,0 1.8,-0.6 1.8,-1.5 0,-0.8 -0.5,-1.3 -1.7,-1.8 -1.4,-0.5 -2.3,-1.3 -2.3,-2.5 0,-1.4 1.1,-2.4 2.9,-2.4 0.9,0 1.6,0.2 1.9,0.4 l -0.3,0.9 c -0.3,-0.2 -0.9,-0.4 -1.7,-0.4 -1.2,0 -1.7,0.7 -1.7,1.3 0,0.8 0.5,1.2 1.8,1.7 1.5,0.6 2.2,1.3 2.2,2.6 0,1.4 -1,2.5 -3.1,2.5 -0.9,0 -1.8,-0.2 -2.2,-0.6 z"
   id="path99" />
		<path
   class="st2"
   d="m 303.9,124.2 c 0,-0.8 0,-1.5 -0.1,-2.1 h 1 l 0.1,1.1 v 0 c 0.5,-0.8 1.2,-1.2 2.2,-1.2 1.5,0 2.7,1.3 2.7,3.2 0,2.3 -1.4,3.4 -2.9,3.4 -0.8,0 -1.6,-0.4 -1.9,-1 v 0 3.4 h -1.1 z m 1.1,1.7 c 0,0.2 0,0.3 0.1,0.5 0.2,0.8 0.9,1.3 1.7,1.3 1.2,0 1.9,-1 1.9,-2.4 0,-1.3 -0.7,-2.4 -1.9,-2.4 -0.8,0 -1.5,0.6 -1.7,1.4 0,0.1 -0.1,0.3 -0.1,0.5 z"
   id="path100" />
		<path
   class="st2"
   d="m 314.9,128.5 -0.1,-0.8 v 0 c -0.4,0.5 -1,0.9 -1.9,0.9 -1.3,0 -1.9,-0.9 -1.9,-1.8 0,-1.5 1.4,-2.4 3.8,-2.4 v -0.1 c 0,-0.5 -0.1,-1.5 -1.4,-1.5 -0.6,0 -1.2,0.2 -1.6,0.5 l -0.3,-0.8 c 0.5,-0.3 1.3,-0.6 2.1,-0.6 1.9,0 2.4,1.3 2.4,2.6 v 2.4 c 0,0.5 0,1.1 0.1,1.5 h -1.2 z m -0.2,-3.2 c -1.3,0 -2.7,0.2 -2.7,1.4 0,0.7 0.5,1.1 1.1,1.1 0.8,0 1.3,-0.5 1.5,-1.1 0,-0.1 0.1,-0.2 0.1,-0.4 z"
   id="path101" />
		<path
   class="st2"
   d="m 322.2,128.3 c -0.3,0.2 -1,0.4 -1.8,0.4 -1.9,0 -3.2,-1.3 -3.2,-3.2 0,-1.9 1.3,-3.4 3.4,-3.4 0.7,0 1.3,0.2 1.6,0.3 l -0.3,0.9 c -0.3,-0.2 -0.7,-0.3 -1.3,-0.3 -1.5,0 -2.2,1.1 -2.2,2.4 0,1.5 0.9,2.4 2.2,2.4 0.7,0 1.1,-0.2 1.4,-0.3 z"
   id="path102" />
		<path
   class="st2"
   d="m 324.1,125.5 c 0,1.6 1,2.2 2.2,2.2 0.8,0 1.3,-0.1 1.8,-0.3 l 0.2,0.8 c -0.4,0.2 -1.1,0.4 -2.1,0.4 -1.9,0 -3.1,-1.3 -3.1,-3.2 0,-1.9 1.1,-3.4 3,-3.4 2.1,0 2.6,1.8 2.6,3 0,0.2 0,0.4 0,0.5 z m 3.4,-0.8 c 0,-0.7 -0.3,-1.9 -1.6,-1.9 -1.2,0 -1.7,1.1 -1.8,1.9 z"
   id="path103" />
		<path
   class="st2"
   d="m 332.4,128.5 v -0.7 l 0.9,-0.9 c 2.2,-2.1 3.2,-3.2 3.2,-4.4 0,-0.9 -0.4,-1.7 -1.7,-1.7 -0.8,0 -1.4,0.4 -1.8,0.7 l -0.4,-0.8 c 0.6,-0.5 1.4,-0.9 2.4,-0.9 1.8,0 2.6,1.3 2.6,2.5 0,1.6 -1.1,2.8 -2.9,4.6 l -0.7,0.6 v 0 h 3.8 v 1 z"
   id="path104" />
		<path
   class="st2"
   d="m 297.3,143.6 c -1.1,-0.3 -2.1,-0.6 -3,-0.9 -0.2,-0.1 -0.3,-0.1 -0.5,-0.1 -1.9,-0.1 -3.5,-1.4 -3.5,-4 0,-2.5 1.5,-4.1 3.7,-4.1 2.1,0 3.5,1.7 3.5,4 0,2 -0.9,3.3 -2.2,3.8 v 0 c 0.8,0.2 1.6,0.4 2.3,0.5 z m -0.9,-5.1 c 0,-1.6 -0.8,-3.2 -2.5,-3.2 -1.7,0 -2.5,1.6 -2.5,3.3 0,1.7 0.9,3.2 2.5,3.2 1.6,-0.1 2.5,-1.5 2.5,-3.3 z"
   id="path105" />
		<path
   class="st2"
   d="m 303.5,140.9 c 0,0.6 0,1.1 0,1.5 h -0.9 l -0.1,-0.9 v 0 c -0.3,0.5 -0.9,1 -1.9,1 -0.9,0 -1.9,-0.5 -1.9,-2.5 v -3.3 h 1 v 3.1 c 0,1.1 0.3,1.8 1.3,1.8 0.7,0 1.2,-0.5 1.3,-0.9 0.1,-0.2 0.1,-0.3 0.1,-0.5 v -3.5 h 1 v 4.2 z"
   id="path106" />
		<path
   class="st2"
   d="m 310.3,139.6 c 0,2.1 -1.4,3 -2.8,3 -1.5,0 -2.7,-1.1 -2.7,-2.9 0,-1.9 1.2,-3 2.8,-3 1.6,0 2.7,1.2 2.7,2.9 z m -4.5,0 c 0,1.2 0.7,2.2 1.7,2.2 1,0 1.7,-0.9 1.7,-2.2 0,-1 -0.5,-2.2 -1.7,-2.2 -1.1,0.1 -1.7,1.2 -1.7,2.2 z"
   id="path107" />
		<path
   class="st2"
   d="m 312.8,135.2 v 1.6 h 1.5 v 0.8 h -1.5 v 3 c 0,0.7 0.2,1.1 0.8,1.1 0.3,0 0.5,0 0.6,-0.1 v 0.8 c -0.2,0.1 -0.5,0.1 -0.9,0.1 -0.5,0 -0.9,-0.2 -1.1,-0.4 -0.3,-0.3 -0.4,-0.8 -0.4,-1.5 v -3.1 H 311 v -0.8 h 0.9 v -1.3 z"
   id="path108" />
		<path
   class="st2"
   d="m 318.6,142.4 -0.1,-0.7 v 0 c -0.3,0.4 -0.9,0.8 -1.7,0.8 -1.1,0 -1.7,-0.8 -1.7,-1.6 0,-1.4 1.2,-2.1 3.4,-2.1 v -0.1 c 0,-0.5 -0.1,-1.3 -1.3,-1.3 -0.5,0 -1.1,0.2 -1.5,0.4 l -0.2,-0.7 c 0.5,-0.3 1.1,-0.5 1.8,-0.5 1.7,0 2.1,1.2 2.1,2.3 v 2.1 c 0,0.5 0,1 0.1,1.3 h -0.9 z m -0.2,-2.8 c -1.1,0 -2.4,0.2 -2.4,1.3 0,0.7 0.4,1 1,1 0.7,0 1.2,-0.5 1.4,-0.9 0,-0.1 0.1,-0.2 0.1,-0.3 v -1.1 z"
   id="path109" />
		<path
   class="st2"
   d="m 320.8,137.7 c 0,-0.4 0.3,-0.7 0.7,-0.7 0.4,0 0.7,0.3 0.7,0.7 0,0.4 -0.3,0.7 -0.7,0.7 -0.4,0.1 -0.7,-0.2 -0.7,-0.7 z m 0,4.1 c 0,-0.4 0.3,-0.7 0.7,-0.7 0.4,0 0.7,0.3 0.7,0.7 0,0.4 -0.3,0.7 -0.7,0.7 -0.4,0.1 -0.7,-0.2 -0.7,-0.7 z"
   id="path110" />
		<path
   class="st2"
   d="m 325.5,140.5 c 0,-1 0.6,-1.6 1.5,-2 v 0 c -0.8,-0.4 -1.2,-1 -1.2,-1.7 0,-1.2 1,-2 2.3,-2 1.5,0 2.2,0.9 2.2,1.9 0,0.6 -0.3,1.3 -1.2,1.8 v 0 c 0.9,0.4 1.5,1 1.5,2 0,1.3 -1.1,2.2 -2.6,2.2 -1.5,-0.1 -2.5,-1.1 -2.5,-2.2 z m 4.1,0 c 0,-0.9 -0.6,-1.4 -1.7,-1.7 -0.9,0.3 -1.4,0.8 -1.4,1.6 0,0.8 0.5,1.4 1.5,1.4 1,0 1.6,-0.5 1.6,-1.3 z m -2.8,-3.8 c 0,0.8 0.6,1.2 1.4,1.4 0.7,-0.2 1.2,-0.7 1.2,-1.4 0,-0.6 -0.4,-1.2 -1.3,-1.2 -0.9,0 -1.3,0.5 -1.3,1.2 z"
   id="path111" />
		<path
   class="st2"
   d="M 335.4,135.5 H 333 v -0.9 h 5.8 v 0.9 h -2.4 v 7 h -1 z"
   id="path112" />
		<path
   class="st2"
   d="m 339.7,134.7 c 0.4,-0.1 1.1,-0.2 1.8,-0.2 1,0 1.7,0.2 2.2,0.6 0.4,0.3 0.7,0.8 0.7,1.4 0,0.8 -0.5,1.4 -1.3,1.7 v 0 c 0.7,0.2 1.6,0.8 1.6,2 0,0.7 -0.3,1.2 -0.7,1.6 -0.5,0.5 -1.4,0.7 -2.7,0.7 -0.7,0 -1.2,0 -1.6,-0.1 z m 1,3.2 h 0.9 c 1.1,0 1.7,-0.6 1.7,-1.3 0,-0.9 -0.7,-1.3 -1.7,-1.3 -0.5,0 -0.7,0 -0.9,0.1 z m 0,3.8 c 0.2,0 0.5,0 0.8,0 1,0 2,-0.4 2,-1.5 0,-1.1 -0.9,-1.5 -2,-1.5 h -0.8 z"
   id="path113" />
	</g>
	<g
   id="g122">
		<path
   class="st0"
   d="m 129.8,206.3 c -1.1,-0.3 -2,-0.7 -3,-1.1 -0.2,-0.1 -0.4,-0.1 -0.5,-0.1 -1.7,-0.1 -3.4,-1.4 -3.4,-3.9 0,-2.3 1.5,-4.1 3.8,-4.1 2.4,0 3.7,1.8 3.7,3.9 0,1.8 -0.8,3 -1.8,3.4 v 0 c 0.6,0.2 1.3,0.3 1.9,0.4 z m -1.4,-5.2 c 0,-1.4 -0.7,-2.6 -1.9,-2.6 -1.2,0 -1.9,1.2 -1.9,2.6 0,1.5 0.7,2.6 1.9,2.6 1.2,0 1.9,-1.1 1.9,-2.6 z"
   id="path114" />
		<path
   class="st0"
   d="m 133.1,197.2 v 4.4 c 0,1.3 0.5,2 1.4,2 0.9,0 1.4,-0.6 1.4,-2 v -4.4 h 1.7 v 4.3 c 0,2.4 -1.2,3.5 -3.2,3.5 -1.9,0 -3.1,-1.1 -3.1,-3.5 v -4.3 z"
   id="path115" />
		<path
   class="st0"
   d="m 146.3,201 c 0,2.5 -1.5,4.1 -3.8,4.1 -2.3,0 -3.6,-1.7 -3.6,-3.9 0,-2.3 1.5,-4 3.8,-4 2.3,-0.1 3.6,1.7 3.6,3.8 z m -5.6,0.1 c 0,1.5 0.7,2.6 1.9,2.6 1.2,0 1.9,-1.1 1.9,-2.6 0,-1.4 -0.7,-2.6 -1.9,-2.6 -1.2,0 -1.9,1.1 -1.9,2.6 z"
   id="path116" />
		<path
   class="st0"
   d="m 148.6,198.7 h -2.1 v -1.5 h 5.9 v 1.5 h -2.1 v 6.3 h -1.8 v -6.3 z"
   id="path117" />
		<path
   class="st0"
   d="m 154.4,203 -0.6,2 H 152 l 2.4,-7.7 h 2.3 l 2.4,7.7 h -1.9 l -0.6,-2 z m 1.9,-1.3 -0.5,-1.6 c -0.1,-0.5 -0.3,-1 -0.4,-1.5 v 0 c -0.1,0.5 -0.2,1 -0.4,1.5 l -0.5,1.6 z"
   id="path118" />
		<path
   class="st0"
   d="m 129.7,212.8 v 0 l -1.4,0.7 -0.3,-1.3 2,-0.9 h 1.4 v 7.4 h -1.7 z"
   id="path119" />
		<path
   class="st0"
   d="m 138.8,212.7 h -2.9 l -0.2,1.1 c 0.2,0 0.3,0 0.5,0 0.7,0 1.4,0.2 2,0.5 0.6,0.4 0.9,1 0.9,1.9 0,1.4 -1.2,2.6 -3.2,2.6 -0.9,0 -1.7,-0.2 -2.1,-0.4 l 0.3,-1.3 c 0.3,0.2 1,0.4 1.7,0.4 0.7,0 1.5,-0.3 1.5,-1.1 0,-0.8 -0.6,-1.2 -2.1,-1.2 -0.4,0 -0.7,0 -1,0.1 l 0.5,-3.9 h 4.1 z"
   id="path120" />
		<path
   class="st0"
   d="m 143.8,212.4 h -2.1 V 211 h 5.9 v 1.5 h -2.1 v 6.3 h -1.8 v -6.4 z"
   id="path121" />
		<path
   class="st0"
   d="m 148.6,211.1 c 0.5,-0.1 1.4,-0.2 2.3,-0.2 1.1,0 1.7,0.1 2.3,0.4 0.5,0.3 0.9,0.8 0.9,1.5 0,0.7 -0.4,1.3 -1.3,1.7 v 0 c 0.9,0.2 1.5,0.9 1.5,1.9 0,0.7 -0.3,1.2 -0.8,1.6 -0.6,0.4 -1.5,0.7 -3,0.7 -0.9,0 -1.5,-0.1 -1.9,-0.1 z m 1.7,2.9 h 0.6 c 0.9,0 1.4,-0.4 1.4,-1 0,-0.6 -0.4,-0.9 -1.2,-0.9 -0.4,0 -0.6,0 -0.7,0 v 1.9 z m 0,3.5 c 0.2,0 0.4,0 0.7,0 0.8,0 1.5,-0.3 1.5,-1.1 0,-0.8 -0.7,-1.1 -1.6,-1.1 h -0.6 z"
   id="path122" />
	</g>
	<g
   id="g130">
		<path
   class="st0"
   d="m 53.3,206.3 c -1.1,-0.3 -2,-0.7 -3,-1.1 -0.2,-0.1 -0.4,-0.1 -0.5,-0.1 -1.7,-0.1 -3.4,-1.4 -3.4,-3.9 0,-2.3 1.5,-4.1 3.8,-4.1 2.4,0 3.7,1.8 3.7,3.9 0,1.8 -0.8,3 -1.8,3.4 v 0 c 0.6,0.2 1.3,0.3 1.9,0.4 z m -1.4,-5.2 c 0,-1.4 -0.7,-2.6 -1.9,-2.6 -1.2,0 -1.9,1.2 -1.9,2.6 0,1.5 0.7,2.6 1.9,2.6 1.2,0 1.9,-1.1 1.9,-2.6 z"
   id="path123" />
		<path
   class="st0"
   d="m 56.7,197.2 v 4.4 c 0,1.3 0.5,2 1.4,2 0.9,0 1.4,-0.6 1.4,-2 v -4.4 h 1.7 v 4.3 c 0,2.4 -1.2,3.5 -3.2,3.5 -1.9,0 -3.1,-1.1 -3.1,-3.5 v -4.3 z"
   id="path124" />
		<path
   class="st0"
   d="m 69.8,201 c 0,2.5 -1.5,4.1 -3.8,4.1 -2.3,0 -3.6,-1.7 -3.6,-3.9 0,-2.3 1.5,-4 3.8,-4 2.3,-0.1 3.6,1.7 3.6,3.8 z m -5.6,0.1 c 0,1.5 0.7,2.6 1.9,2.6 1.2,0 1.9,-1.1 1.9,-2.6 0,-1.4 -0.7,-2.6 -1.9,-2.6 -1.2,0 -1.9,1.1 -1.9,2.6 z"
   id="path125" />
		<path
   class="st0"
   d="M 72.1,198.7 H 70 v -1.5 h 6 v 1.5 h -2.1 v 6.3 h -1.8 z"
   id="path126" />
		<path
   class="st0"
   d="m 77.9,203 -0.6,2 h -1.8 l 2.4,-7.7 h 2.3 l 2.4,7.7 h -1.9 l -0.6,-2 z m 2,-1.3 -0.5,-1.6 c -0.1,-0.5 -0.3,-1 -0.4,-1.5 v 0 c -0.1,0.5 -0.2,1 -0.4,1.5 l -0.5,1.6 z"
   id="path127" />
		<path
   class="st0"
   d="m 59.1,212.7 h -2.9 l -0.2,1.1 c 0.2,0 0.3,0 0.5,0 0.7,0 1.4,0.2 2,0.5 0.6,0.4 0.9,1 0.9,1.9 0,1.4 -1.2,2.6 -3.2,2.6 -0.9,0 -1.7,-0.2 -2.1,-0.4 l 0.3,-1.3 c 0.3,0.2 1,0.4 1.7,0.4 0.7,0 1.5,-0.3 1.5,-1.1 0,-0.8 -0.6,-1.2 -2.1,-1.2 -0.4,0 -0.7,0 -1,0.1 l 0.5,-3.9 h 4.1 z"
   id="path128" />
		<path
   class="st0"
   d="M 64.2,212.4 H 62.1 V 211 H 68 v 1.5 h -2.1 v 6.3 h -1.8 v -6.4 z"
   id="path129" />
		<path
   class="st0"
   d="m 69,211.1 c 0.5,-0.1 1.4,-0.2 2.3,-0.2 1.1,0 1.7,0.1 2.3,0.4 0.5,0.3 0.9,0.8 0.9,1.5 0,0.7 -0.4,1.3 -1.3,1.7 v 0 c 0.9,0.2 1.5,0.9 1.5,1.9 0,0.7 -0.3,1.2 -0.8,1.6 -0.6,0.4 -1.5,0.7 -3,0.7 -0.9,0 -1.5,-0.1 -1.9,-0.1 z m 1.7,2.9 h 0.6 c 0.9,0 1.4,-0.4 1.4,-1 0,-0.6 -0.4,-0.9 -1.2,-0.9 -0.4,0 -0.6,0 -0.7,0 v 1.9 z m 0,3.5 c 0.2,0 0.4,0 0.7,0 0.8,0 1.5,-0.3 1.5,-1.1 0,-0.8 -0.7,-1.1 -1.6,-1.1 h -0.6 z"
   id="path130" />
	</g>
	<g
   id="g138">
		<path
   class="st0"
   d="m 354,206.3 c -1.1,-0.3 -2,-0.7 -3,-1.1 -0.2,-0.1 -0.4,-0.1 -0.5,-0.1 -1.7,-0.1 -3.4,-1.4 -3.4,-3.9 0,-2.3 1.5,-4.1 3.8,-4.1 2.4,0 3.7,1.8 3.7,3.9 0,1.8 -0.8,3 -1.8,3.4 v 0 c 0.6,0.2 1.3,0.3 1.9,0.4 z m -1.4,-5.2 c 0,-1.4 -0.7,-2.6 -1.9,-2.6 -1.2,0 -1.9,1.2 -1.9,2.6 0,1.5 0.7,2.6 1.9,2.6 1.2,0 1.9,-1.1 1.9,-2.6 z"
   id="path131" />
		<path
   class="st0"
   d="m 357.3,197.2 v 4.4 c 0,1.3 0.5,2 1.4,2 0.9,0 1.4,-0.6 1.4,-2 v -4.4 h 1.7 v 4.3 c 0,2.4 -1.2,3.5 -3.2,3.5 -1.9,0 -3.1,-1.1 -3.1,-3.5 v -4.3 z"
   id="path132" />
		<path
   class="st0"
   d="m 370.5,201 c 0,2.5 -1.5,4.1 -3.8,4.1 -2.3,0 -3.6,-1.7 -3.6,-3.9 0,-2.3 1.5,-4 3.8,-4 2.3,-0.1 3.6,1.7 3.6,3.8 z m -5.6,0.1 c 0,1.5 0.7,2.6 1.9,2.6 1.2,0 1.9,-1.1 1.9,-2.6 0,-1.4 -0.7,-2.6 -1.9,-2.6 -1.2,0 -1.9,1.1 -1.9,2.6 z"
   id="path133" />
		<path
   class="st0"
   d="m 372.8,198.7 h -2.1 v -1.5 h 5.9 v 1.5 h -2.1 v 6.3 h -1.8 v -6.3 z"
   id="path134" />
		<path
   class="st0"
   d="m 378.6,203 -0.6,2 h -1.8 l 2.4,-7.7 h 2.3 l 2.4,7.7 h -1.9 l -0.6,-2 z m 1.9,-1.3 -0.5,-1.7 c -0.1,-0.5 -0.3,-1 -0.4,-1.5 v 0 c -0.1,0.5 -0.2,1 -0.4,1.5 l -0.5,1.6 h 1.8 z"
   id="path135" />
		<path
   class="st0"
   d="m 354.8,218.7 v -1.1 l 1,-0.9 c 1.6,-1.5 2.4,-2.3 2.4,-3.2 0,-0.6 -0.4,-1.1 -1.2,-1.1 -0.6,0 -1.2,0.3 -1.6,0.6 l -0.5,-1.2 c 0.6,-0.4 1.4,-0.8 2.4,-0.8 1.7,0 2.6,1 2.6,2.3 0,1.2 -0.9,2.2 -2,3.2 l -0.7,0.6 v 0 h 2.8 v 1.4 h -5.2 z"
   id="path136" />
		<path
   class="st0"
   d="m 364.8,212.4 h -2.1 V 211 h 5.9 v 1.5 h -2.1 v 6.3 h -1.8 v -6.4 z"
   id="path137" />
		<path
   class="st0"
   d="m 369.6,211.1 c 0.5,-0.1 1.4,-0.2 2.3,-0.2 1.1,0 1.7,0.1 2.3,0.4 0.5,0.3 0.9,0.8 0.9,1.5 0,0.7 -0.4,1.3 -1.3,1.7 v 0 c 0.9,0.2 1.5,0.9 1.5,1.9 0,0.7 -0.3,1.2 -0.8,1.6 -0.6,0.4 -1.5,0.7 -3,0.7 -0.9,0 -1.5,-0.1 -1.9,-0.1 z m 1.7,2.9 h 0.6 c 0.9,0 1.4,-0.4 1.4,-1 0,-0.6 -0.4,-0.9 -1.2,-0.9 -0.4,0 -0.6,0 -0.7,0 v 1.9 z m 0,3.5 c 0.2,0 0.4,0 0.7,0 0.8,0 1.5,-0.3 1.5,-1.1 0,-0.8 -0.7,-1.1 -1.6,-1.1 h -0.6 z"
   id="path138" />
	</g>
	<g
   id="g146">
		<path
   class="st0"
   d="m 216.6,206.3 c -1.1,-0.3 -2,-0.7 -3,-1.1 -0.2,-0.1 -0.4,-0.1 -0.5,-0.1 -1.7,-0.1 -3.4,-1.4 -3.4,-3.9 0,-2.3 1.5,-4.1 3.8,-4.1 2.4,0 3.7,1.8 3.7,3.9 0,1.8 -0.8,3 -1.8,3.4 v 0 c 0.6,0.2 1.3,0.3 1.9,0.4 z m -1.3,-5.2 c 0,-1.4 -0.7,-2.6 -1.9,-2.6 -1.2,0 -1.9,1.2 -1.9,2.6 0,1.5 0.7,2.6 1.9,2.6 1.2,0 1.9,-1.1 1.9,-2.6 z"
   id="path139" />
		<path
   class="st0"
   d="m 220,197.2 v 4.4 c 0,1.3 0.5,2 1.4,2 0.9,0 1.4,-0.6 1.4,-2 v -4.4 h 1.7 v 4.3 c 0,2.4 -1.2,3.5 -3.2,3.5 -1.9,0 -3.1,-1.1 -3.1,-3.5 v -4.3 z"
   id="path140" />
		<path
   class="st0"
   d="m 233.1,201 c 0,2.5 -1.5,4.1 -3.8,4.1 -2.3,0 -3.6,-1.7 -3.6,-3.9 0,-2.3 1.5,-4 3.8,-4 2.3,-0.1 3.6,1.7 3.6,3.8 z m -5.6,0.1 c 0,1.5 0.7,2.6 1.9,2.6 1.2,0 1.9,-1.1 1.9,-2.6 0,-1.4 -0.7,-2.6 -1.9,-2.6 -1.2,0 -1.9,1.1 -1.9,2.6 z"
   id="path141" />
		<path
   class="st0"
   d="m 235.4,198.7 h -2.1 v -1.5 h 5.9 v 1.5 h -2.1 v 6.3 h -1.8 v -6.3 z"
   id="path142" />
		<path
   class="st0"
   d="m 241.2,203 -0.5,2 h -1.8 l 2.4,-7.7 h 2.3 l 2.4,7.7 h -2 l -0.6,-2 z m 2,-1.3 -0.5,-1.6 c -0.1,-0.5 -0.3,-1 -0.4,-1.5 v 0 c -0.1,0.5 -0.2,1 -0.4,1.5 l -0.5,1.6 z"
   id="path143" />
		<path
   class="st0"
   d="m 222.2,212.5 c -0.2,0 -0.4,0 -0.7,0 -1.5,0.1 -2.2,0.9 -2.4,1.8 v 0 c 0.4,-0.4 0.9,-0.6 1.6,-0.6 1.2,0 2.3,0.9 2.3,2.4 0,1.5 -1.1,2.7 -2.8,2.7 -2,0 -3,-1.5 -3,-3.3 0,-1.4 0.5,-2.6 1.3,-3.3 0.7,-0.7 1.7,-1 2.9,-1.1 0.3,0 0.5,0 0.7,0 v 1.4 z m -0.9,3.7 c 0,-0.7 -0.4,-1.3 -1.1,-1.3 -0.5,0 -0.9,0.3 -1,0.7 0,0.1 -0.1,0.2 -0.1,0.4 0,0.8 0.4,1.5 1.2,1.5 0.6,0 1,-0.5 1,-1.3 z"
   id="path144" />
		<path
   class="st0"
   d="m 227.5,212.4 h -2.1 V 211 h 5.9 v 1.5 h -2.1 v 6.3 h -1.8 v -6.4 z"
   id="path145" />
		<path
   class="st0"
   d="m 232.3,211.1 c 0.5,-0.1 1.4,-0.2 2.3,-0.2 1.1,0 1.7,0.1 2.3,0.4 0.5,0.3 0.9,0.8 0.9,1.5 0,0.7 -0.4,1.3 -1.3,1.7 v 0 c 0.9,0.2 1.5,0.9 1.5,1.9 0,0.7 -0.3,1.2 -0.8,1.6 -0.6,0.4 -1.5,0.7 -3,0.7 -0.9,0 -1.5,-0.1 -1.9,-0.1 z m 1.7,2.9 h 0.6 c 0.9,0 1.4,-0.4 1.4,-1 0,-0.6 -0.4,-0.9 -1.2,-0.9 -0.4,0 -0.6,0 -0.7,0 v 1.9 z m 0,3.5 c 0.2,0 0.4,0 0.7,0 0.8,0 1.5,-0.3 1.5,-1.1 0,-0.8 -0.7,-1.1 -1.6,-1.1 H 234 Z"
   id="path146" />
	</g>
	<g
   id="g158">
		<g
   id="g151">
			<g
   id="g147">
				<path
   class="st3"
   d="m 177.4,50.8 5,-22 h 8.5 l 5,22 h -4.5 l -0.9,-4 h -7.7 l -0.9,4 z m 8.4,-18.3 -2.2,10.5 h 6 l -2.2,-10.5 z"
   id="path147" />
			</g>
			<g
   id="g148">
				<path
   class="st3"
   d="m 195.5,32.7 v -4 h 16.2 v 4 h -5.8 v 18.1 h -4.5 V 32.7 Z"
   id="path148" />
			</g>
			<g
   id="g149">
				<path
   class="st3"
   d="m 211.5,50.8 5,-22 h 8.5 l 5,22 h -4.5 l -0.9,-4 h -7.7 l -0.9,4 z m 8.4,-18.3 -2.2,10.5 h 6 l -2.2,-10.5 z"
   id="path149" />
			</g>
			<g
   id="g150">
				<path
   class="st3"
   d="m 175.3,34.6 c -0.3,-1.2 -0.7,-2.3 -1.4,-3.2 -0.7,-0.9 -1.6,-1.6 -2.9,-2 -1.2,-0.4 -2.8,-0.6 -4.7,-0.6 h -2.9 v 3.9 h 2.9 c 1.1,0 1.9,0.1 2.6,0.3 0.6,0.2 1.1,0.6 1.4,1.2 0.3,0.6 0.5,1.3 0.6,2 0.1,0.7 0.1,1.7 0.1,2.9 0,1.2 0,2.2 -0.1,2.9 -0.2,1.7 -0.5,3 -1.2,3.6 -0.7,0.8 -1.9,1.2 -3.5,1.2 h -2.9 v 3.9 h 2.9 c 1.9,0 3.5,-0.2 4.8,-0.7 1.3,-0.5 2.2,-1.2 2.9,-2.2 0.7,-1 1.1,-2.2 1.3,-3.5 0.2,-1.3 0.4,-3 0.4,-4.9 0.1,-2 -0.1,-3.6 -0.3,-4.8 z"
   id="path150" />
			</g>
		</g>
		<g
   id="g154">
			<g
   id="g152">
				<path
   d="m 116.3,48.5 c -1.4,1.8 -3.7,2.7 -7.1,2.7 -3.3,0 -5.7,-0.9 -7.1,-2.7 -1.4,-1.8 -2.1,-4.7 -2.1,-8.6 0,-3.9 0.7,-6.8 2.1,-8.7 1.4,-1.9 3.7,-2.8 7.1,-2.8 3.3,0 5.7,0.9 7.1,2.8 1.4,1.9 2.1,4.8 2.1,8.7 0,3.9 -0.7,6.7 -2.1,8.6 z m -10.7,-2.9 c 0.6,1.1 1.8,1.7 3.6,1.7 1.8,0 2.9,-0.6 3.6,-1.7 0.6,-1.1 1,-3 1,-5.7 0,-2.7 -0.3,-4.6 -1,-5.8 -0.6,-1.2 -1.8,-1.8 -3.6,-1.8 -1.7,0 -2.9,0.6 -3.6,1.8 -0.6,1.2 -1,3.1 -1,5.8 0,2.7 0.4,4.6 1,5.7 z"
   id="path151" />
			</g>
			<g
   id="g153">
				<path
   d="m 122.2,50.8 v -22 h 7.5 l 5.3,18.1 h 0.3 V 28.8 h 4.5 v 22 h -7.4 L 127,32.7 h -0.3 v 18.1 z"
   id="path152" />
			</g>
		</g>
		<g
   id="g155">
			<rect
   x="144.60001"
   y="28.799999"
   width="14.3"
   height="3.9000001"
   id="rect154" />
		</g>
		<g
   id="g156">
			<rect
   x="144.60001"
   y="37.799999"
   width="14.3"
   height="3.9000001"
   id="rect155" />
		</g>
		<g
   id="g157">
			<rect
   x="144.60001"
   y="46.900002"
   width="14.3"
   height="3.9000001"
   id="rect156" />
		</g>
	</g>
	<g
   id="g159">
		<rect
   x="153.10001"
   y="263.79999"
   class="st4"
   width="112"
   height="79.300003"
   id="rect158" />
		<path
   class="st0"
   d="m 269.1,347.1 h -120 v -87.3 h 120 z m -112,-8 h 104 v -71.3 h -104 z"
   id="path158" />
	</g>
	<g
   id="g164">
		<g
   id="g160">
			<path
   class="st2"
   d="m 203.1,314.3 h -36.3 c -0.8,0 -1.5,0.8 -1.5,1.8 v 4.1 c 0,1 0.8,1.8 1.5,1.8 h 36.3 c 0.8,0 1.4,-0.8 1.4,-1.8 v -4.1 c 0,-1 -0.6,-1.8 -1.4,-1.8 z m -1.5,4.6 c -0.5,0 -0.9,-0.4 -0.9,-0.9 0,-0.5 0.4,-0.9 0.9,-0.9 0.5,0 0.9,0.4 0.9,0.9 0,0.5 -0.4,0.9 -0.9,0.9 z"
   id="path159" />
		</g>
		<g
   id="g161">
			<path
   class="st2"
   d="m 203.1,296 h -36.3 c -0.8,0 -1.5,0.8 -1.5,1.8 v 4.1 c 0,1 0.8,1.8 1.5,1.8 h 36.3 c 0.8,0 1.4,-0.8 1.4,-1.8 v -4.1 c 0,-1 -0.6,-1.8 -1.4,-1.8 z m -1.5,4.7 c -0.5,0 -0.9,-0.4 -0.9,-0.9 0,-0.5 0.4,-0.9 0.9,-0.9 0.5,0 0.9,0.4 0.9,0.9 0,0.5 -0.4,0.9 -0.9,0.9 z"
   id="path160" />
		</g>
		<g
   id="g162">
			<path
   class="st2"
   d="m 203.1,305.2 h -36.3 c -0.8,0 -1.5,0.8 -1.5,1.8 v 4.1 c 0,1 0.8,1.8 1.5,1.8 h 36.3 c 0.8,0 1.4,-0.8 1.4,-1.8 V 307 c 0,-1 -0.6,-1.8 -1.4,-1.8 z m -1.5,4.3 c -0.5,0 -0.9,-0.4 -0.9,-0.9 0,-0.5 0.4,-0.9 0.9,-0.9 0.5,0 0.9,0.4 0.9,0.9 0,0.5 -0.4,0.9 -0.9,0.9 z"
   id="path161" />
		</g>
		<g
   id="g163">
			<path
   class="st2"
   d="m 203.1,286.5 h -36.3 c -0.8,0 -1.5,0.8 -1.5,1.8 v 4.1 c 0,1 0.8,1.8 1.5,1.8 h 36.3 c 0.8,0 1.4,-0.8 1.4,-1.8 v -4.1 c 0,-0.9 -0.6,-1.8 -1.4,-1.8 z m -1.5,4.7 c -0.5,0 -0.9,-0.4 -0.9,-0.9 0,-0.5 0.4,-0.9 0.9,-0.9 0.5,0 0.9,0.4 0.9,0.9 0,0.5 -0.4,0.9 -0.9,0.9 z"
   id="path162" />
		</g>
	</g>
	<g
   id="g169">
		<g
   id="g165">
			<path
   class="st2"
   d="m 253.1,314.3 h -36.3 c -0.8,0 -1.5,0.8 -1.5,1.8 v 4.1 c 0,1 0.8,1.8 1.5,1.8 h 36.3 c 0.8,0 1.4,-0.8 1.4,-1.8 v -4.1 c 0,-1 -0.6,-1.8 -1.4,-1.8 z m -1.5,4.6 c -0.5,0 -0.9,-0.4 -0.9,-0.9 0,-0.5 0.4,-0.9 0.9,-0.9 0.5,0 0.9,0.4 0.9,0.9 0,0.5 -0.4,0.9 -0.9,0.9 z"
   id="path164" />
		</g>
		<g
   id="g166">
			<path
   class="st2"
   d="m 253.1,296 h -36.3 c -0.8,0 -1.5,0.8 -1.5,1.8 v 4.1 c 0,1 0.8,1.8 1.5,1.8 h 36.3 c 0.8,0 1.4,-0.8 1.4,-1.8 v -4.1 c 0,-1 -0.6,-1.8 -1.4,-1.8 z m -1.5,4.7 c -0.5,0 -0.9,-0.4 -0.9,-0.9 0,-0.5 0.4,-0.9 0.9,-0.9 0.5,0 0.9,0.4 0.9,0.9 0,0.5 -0.4,0.9 -0.9,0.9 z"
   id="path165" />
		</g>
		<g
   id="g167">
			<path
   class="st2"
   d="m 253.1,305.2 h -36.3 c -0.8,0 -1.5,0.8 -1.5,1.8 v 4.1 c 0,1 0.8,1.8 1.5,1.8 h 36.3 c 0.8,0 1.4,-0.8 1.4,-1.8 V 307 c 0,-1 -0.6,-1.8 -1.4,-1.8 z m -1.5,4.3 c -0.5,0 -0.9,-0.4 -0.9,-0.9 0,-0.5 0.4,-0.9 0.9,-0.9 0.5,0 0.9,0.4 0.9,0.9 0,0.5 -0.4,0.9 -0.9,0.9 z"
   id="path166" />
		</g>
		<g
   id="g168">
			<path
   class="st2"
   d="m 253.1,286.5 h -36.3 c -0.8,0 -1.5,0.8 -1.5,1.8 v 4.1 c 0,1 0.8,1.8 1.5,1.8 h 36.3 c 0.8,0 1.4,-0.8 1.4,-1.8 v -4.1 c 0,-0.9 -0.6,-1.8 -1.4,-1.8 z m -1.5,4.7 c -0.5,0 -0.9,-0.4 -0.9,-0.9 0,-0.5 0.4,-0.9 0.9,-0.9 0.5,0 0.9,0.4 0.9,0.9 0,0.5 -0.4,0.9 -0.9,0.9 z"
   id="path167" />
		</g>
	</g>
	<g
   id="g170">
		<rect
   x="284"
   y="263"
   class="st4"
   width="85.800003"
   height="80.800003"
   id="rect169" />
		<path
   class="st0"
   d="M 373.8,347.9 H 280 V 259 h 93.8 z m -85.8,-8 h 77.8 V 267 H 288 Z"
   id="path169" />
	</g>
	<g
   id="g175">
		<g
   id="g171">
			<path
   class="st2"
   d="M 345.3,314.9 H 309 c -0.8,0 -1.5,0.8 -1.5,1.8 v 4.1 c 0,1 0.8,1.8 1.5,1.8 h 36.3 c 0.8,0 1.4,-0.8 1.4,-1.8 v -4.1 c 0.1,-1 -0.6,-1.8 -1.4,-1.8 z m -1.4,4.6 c -0.5,0 -0.9,-0.4 -0.9,-0.9 0,-0.5 0.4,-0.9 0.9,-0.9 0.5,0 0.9,0.4 0.9,0.9 -0.1,0.6 -0.5,0.9 -0.9,0.9 z"
   id="path170" />
		</g>
		<g
   id="g172">
			<path
   class="st2"
   d="M 345.3,296.6 H 309 c -0.8,0 -1.5,0.8 -1.5,1.8 v 4.1 c 0,1 0.8,1.8 1.5,1.8 h 36.3 c 0.8,0 1.4,-0.8 1.4,-1.8 v -4.1 c 0.1,-0.9 -0.6,-1.8 -1.4,-1.8 z m -1.4,4.7 c -0.5,0 -0.9,-0.4 -0.9,-0.9 0,-0.5 0.4,-0.9 0.9,-0.9 0.5,0 0.9,0.4 0.9,0.9 -0.1,0.5 -0.5,0.9 -0.9,0.9 z"
   id="path171" />
		</g>
		<g
   id="g173">
			<path
   class="st2"
   d="M 345.3,305.8 H 309 c -0.8,0 -1.5,0.8 -1.5,1.8 v 4.1 c 0,1 0.8,1.8 1.5,1.8 h 36.3 c 0.8,0 1.4,-0.8 1.4,-1.8 v -4.1 c 0.1,-1 -0.6,-1.8 -1.4,-1.8 z m -1.4,4.3 c -0.5,0 -0.9,-0.4 -0.9,-0.9 0,-0.5 0.4,-0.9 0.9,-0.9 0.5,0 0.9,0.4 0.9,0.9 -0.1,0.5 -0.5,0.9 -0.9,0.9 z"
   id="path172" />
		</g>
		<g
   id="g174">
			<path
   class="st2"
   d="M 345.3,287.2 H 309 c -0.8,0 -1.5,0.8 -1.5,1.8 v 4.1 c 0,1 0.8,1.8 1.5,1.8 h 36.3 c 0.8,0 1.4,-0.8 1.4,-1.8 V 289 c 0.1,-1 -0.6,-1.8 -1.4,-1.8 z m -1.4,4.6 c -0.5,0 -0.9,-0.4 -0.9,-0.9 0,-0.5 0.4,-0.9 0.9,-0.9 0.5,0 0.9,0.4 0.9,0.9 -0.1,0.5 -0.5,0.9 -0.9,0.9 z"
   id="path173" />
		</g>
	</g>
	<g
   id="g176">
		<rect
   x="49.200001"
   y="263"
   class="st4"
   width="85.800003"
   height="80.800003"
   id="rect175" />
		<path
   class="st0"
   d="M 139,347.9 H 45.2 V 259 H 139 Z m -85.8,-8 H 131 V 267 H 53.2 Z"
   id="path175" />
	</g>
	<g
   id="g181">
		<g
   id="g177">
			<path
   class="st2"
   d="M 110.5,314.9 H 74.2 c -0.8,0 -1.5,0.8 -1.5,1.8 v 4.1 c 0,1 0.8,1.8 1.5,1.8 h 36.3 c 0.8,0 1.4,-0.8 1.4,-1.8 v -4.1 c 0,-1 -0.6,-1.8 -1.4,-1.8 z m -1.5,4.6 c -0.5,0 -0.9,-0.4 -0.9,-0.9 0,-0.5 0.4,-0.9 0.9,-0.9 0.5,0 0.9,0.4 0.9,0.9 0,0.6 -0.4,0.9 -0.9,0.9 z"
   id="path176" />
		</g>
		<g
   id="g178">
			<path
   class="st2"
   d="M 110.5,296.6 H 74.2 c -0.8,0 -1.5,0.8 -1.5,1.8 v 4.1 c 0,1 0.8,1.8 1.5,1.8 h 36.3 c 0.8,0 1.4,-0.8 1.4,-1.8 v -4.1 c 0,-0.9 -0.6,-1.8 -1.4,-1.8 z m -1.5,4.7 c -0.5,0 -0.9,-0.4 -0.9,-0.9 0,-0.5 0.4,-0.9 0.9,-0.9 0.5,0 0.9,0.4 0.9,0.9 0,0.5 -0.4,0.9 -0.9,0.9 z"
   id="path177" />
		</g>
		<g
   id="g179">
			<path
   class="st2"
   d="M 110.5,305.8 H 74.2 c -0.8,0 -1.5,0.8 -1.5,1.8 v 4.1 c 0,1 0.8,1.8 1.5,1.8 h 36.3 c 0.8,0 1.4,-0.8 1.4,-1.8 v -4.1 c 0,-1 -0.6,-1.8 -1.4,-1.8 z m -1.5,4.3 c -0.5,0 -0.9,-0.4 -0.9,-0.9 0,-0.5 0.4,-0.9 0.9,-0.9 0.5,0 0.9,0.4 0.9,0.9 0,0.5 -0.4,0.9 -0.9,0.9 z"
   id="path178" />
		</g>
		<g
   id="g180">
			<path
   class="st2"
   d="M 110.5,287.2 H 74.2 c -0.8,0 -1.5,0.8 -1.5,1.8 v 4.1 c 0,1 0.8,1.8 1.5,1.8 h 36.3 c 0.8,0 1.4,-0.8 1.4,-1.8 V 289 c 0,-1 -0.6,-1.8 -1.4,-1.8 z m -1.5,4.6 c -0.5,0 -0.9,-0.4 -0.9,-0.9 0,-0.5 0.4,-0.9 0.9,-0.9 0.5,0 0.9,0.4 0.9,0.9 0,0.5 -0.4,0.9 -0.9,0.9 z"
   id="path179" />
		</g>
	</g>
	<g
   id="g187">
		<g
   id="g182">
			<path
   class="st0"
   d="m 169.9,244.9 c -0.7,-1.9 -1.3,-3.9 -1.7,-5.9 l 2.9,-0.7 c 0.4,1.9 1,3.8 1.6,5.6 z"
   id="path181" />
		</g>
		<g
   id="g183">
			<path
   class="st0"
   d="m 169.9,225.7 -3,-0.1 c 0.1,-4.2 0.6,-8.7 1.5,-13.2 l 2.9,0.6 c -0.9,4.4 -1.4,8.7 -1.4,12.7 z m 4.9,-25 -2.8,-1 c 1.4,-4 3.1,-8.1 5.1,-12.2 l 2.7,1.3 c -2,4 -3.6,8 -5,11.9 z"
   id="path182" />
		</g>
		<g
   id="g184">
			<path
   class="st0"
   d="m 185.8,177.5 -2.6,-1.5 c 1,-1.7 2.1,-3.5 3.2,-5.2 l 2.5,1.6 c -1,1.7 -2.1,3.4 -3.1,5.1 z"
   id="path183" />
		</g>
		<g
   id="g186">
			<g
   id="g185">
				<polygon
   class="st0"
   points="180.4,169.2 192.7,177.7 193.9,162.8 "
   id="polygon184" />
			</g>
		</g>
	</g>
	<g
   id="g193">
		<g
   id="g188">
			<path
   class="st0"
   d="m 88.9,245 c -0.8,-1.9 -1.6,-3.8 -2.2,-5.8 l 2.9,-0.9 c 0.6,1.8 1.3,3.7 2.1,5.5 z"
   id="path187" />
		</g>
		<g
   id="g189">
			<path
   class="st0"
   d="m 84.4,227.4 c -0.1,-1 -0.1,-2.1 -0.1,-3.1 0,-3 0.3,-6 0.8,-9 l 2.9,0.6 c -0.5,2.8 -0.8,5.6 -0.8,8.4 0,1 0,1.9 0.1,2.9 z m 7.1,-22.5 -2.8,-1.2 c 1.5,-3.5 3.5,-7.1 5.8,-10.5 l 2.5,1.7 c -2.2,3.3 -4,6.7 -5.5,10 z m 12.6,-19.2 -2.3,-2 c 2.5,-2.9 5.3,-5.7 8.4,-8.5 l 2,2.2 c -2.9,2.7 -5.7,5.5 -8.1,8.3 z"
   id="path188" />
		</g>
		<g
   id="g190">
			<path
   class="st0"
   d="m 121.2,170 -1.8,-2.4 c 1.6,-1.2 3.3,-2.4 4.9,-3.6 l 1.7,2.5 c -1.7,1.2 -3.3,2.3 -4.8,3.5 z"
   id="path189" />
		</g>
		<g
   id="g192">
			<g
   id="g191">
				<polygon
   class="st0"
   points="119.3,160.3 127.3,172.9 134.2,159.6 "
   id="polygon190" />
			</g>
		</g>
	</g>
	<g
   id="g199">
		<g
   id="g194">
			<path
   class="st0"
   d="m 244.4,239.8 c -0.1,-2 0,-4.1 0.2,-6.2 l 3,0.3 c -0.2,1.9 -0.3,3.9 -0.2,5.8 z"
   id="path193" />
		</g>
		<g
   id="g195">
			<path
   class="st0"
   d="m 249.7,224 -2.9,-0.9 c 1,-3.2 2.3,-6.5 4,-9.9 l 2.7,1.3 c -1.6,3.3 -2.9,6.4 -3.8,9.5 z m 8.8,-18.3 -2.5,-1.6 c 1.8,-2.8 3.9,-5.7 6.1,-8.6 l 2.4,1.9 c -2.2,2.7 -4.2,5.6 -6,8.3 z m 12.7,-16.2 -2.2,-2 c 2.3,-2.5 4.8,-5 7.3,-7.5 l 2.1,2.2 c -2.6,2.3 -5,4.8 -7.2,7.3 z"
   id="path194" />
		</g>
		<g
   id="g196">
			<path
   class="st0"
   d="m 286,175.1 -2,-2.3 c 1.5,-1.3 3.1,-2.6 4.6,-3.9 l 1.9,2.3 c -1.5,1.3 -3,2.6 -4.5,3.9 z"
   id="path195" />
		</g>
		<g
   id="g198">
			<g
   id="g197">
				<polygon
   class="st0"
   points="283.3,165.6 292.5,177.5 298.1,163.6 "
   id="polygon196" />
			</g>
		</g>
	</g>
	<g
   id="g205">
		<g
   id="g200">
			<path
   class="st0"
   d="m 42.8,75.8 -2.5,-1.6 c 1.1,-1.7 2.2,-3.4 3.2,-5.1 l 2.5,1.6 c -1.1,1.7 -2.1,3.4 -3.2,5.1 z"
   id="path199" />
		</g>
		<g
   id="g201">
			<path
   class="st0"
   d="m 17.8,274.4 c -1.2,-3.6 -2.3,-7.3 -3.3,-11.1 l 2.9,-0.8 c 1,3.7 2.1,7.4 3.3,10.9 z m -6.1,-22.3 c -0.8,-3.7 -1.6,-7.5 -2.3,-11.3 l 3,-0.5 c 0.7,3.7 1.4,7.5 2.3,11.2 z M 7.6,229.4 C 7.1,225.6 6.7,221.7 6.3,217.9 l 3,-0.3 c 0.3,3.8 0.8,7.6 1.3,11.3 z m -2,-23 C 5.5,203 5.4,199.7 5.4,196.3 v -1.5 h 3 v 1.5 c 0,3.3 0.1,6.6 0.2,10 z m 3.1,-23 -3,-0.2 c 0.2,-3.8 0.5,-7.7 0.9,-11.5 l 3,0.3 c -0.3,3.8 -0.7,7.6 -0.9,11.4 z m 2.4,-22.7 -3,-0.5 c 0.6,-3.8 1.3,-7.6 2.1,-11.4 l 2.9,0.6 c -0.7,3.8 -1.4,7.6 -2,11.3 z m 4.7,-22.3 -2.9,-0.8 c 1,-3.7 2.1,-7.4 3.2,-11.1 l 2.9,0.9 c -1.2,3.7 -2.3,7.4 -3.2,11 z m 6.9,-21.7 -2.8,-1.1 c 1.3,-3.6 2.8,-7.2 4.3,-10.7 l 2.8,1.2 c -1.6,3.5 -3,7 -4.3,10.6 z m 9,-20.9 -2.7,-1.4 c 1.7,-3.4 3.5,-6.9 5.4,-10.2 l 2.6,1.5 c -1.8,3.3 -3.6,6.7 -5.3,10.1 z"
   id="path200" />
		</g>
		<g
   id="g202">
			<path
   class="st0"
   d="m 23.9,290.9 c -0.8,-1.8 -1.5,-3.7 -2.2,-5.6 l 2.8,-1.1 c 0.7,1.9 1.4,3.7 2.2,5.5 z"
   id="path201" />
		</g>
		<g
   id="g204">
			<g
   id="g203">
				<polygon
   class="st0"
   points="31.2,285.3 17.6,291.4 29.7,300.2 "
   id="polygon202" />
			</g>
		</g>
	</g>
	<g
   id="g211">
		<g
   id="g206">
			<path
   class="st0"
   d="m 336.8,244.9 -2.8,-1 c 0.7,-1.8 1.2,-3.7 1.6,-5.6 l 2.9,0.7 c -0.4,2 -1,4 -1.7,5.9 z"
   id="path205" />
		</g>
		<g
   id="g207">
			<path
   class="st0"
   d="m 336.9,225.7 c -0.1,-4 -0.6,-8.3 -1.5,-12.7 l 2.9,-0.6 c 0.9,4.5 1.5,9 1.5,13.2 z m -5,-25 c -1.4,-3.9 -3,-7.9 -5,-11.9 l 2.7,-1.3 c 2,4.1 3.7,8.2 5.1,12.2 z"
   id="path206" />
		</g>
		<g
   id="g208">
			<path
   class="st0"
   d="m 320.9,177.5 c -1,-1.7 -2,-3.4 -3.1,-5.1 l 2.5,-1.6 c 1.1,1.7 2.2,3.4 3.2,5.2 z"
   id="path207" />
		</g>
		<g
   id="g210">
			<g
   id="g209">
				<polygon
   class="st0"
   points="314,177.7 326.3,169.2 312.8,162.8 "
   id="polygon208" />
			</g>
		</g>
	</g>
	<g
   id="g214">
		<g
   id="g213">
			<defs
   id="defs211">
				<rect
   id="SVGID_1_"
   x="52.700001"
   y="15.9"
   width="31.6"
   height="54" />
			</defs>
			<clipPath
   id="SVGID_2_">
				<use
   xlink:href="#SVGID_1_"
   style="overflow:visible"
   id="use211" />
			</clipPath>
			<g
   class="st5"
   clip-path="url(#SVGID_2_)"
   id="g212">
				<path
   d="m 82,46.1 -7.3,-2.4 v 0 l -0.3,-0.1 c 1.1,-1.3 2,-2.9 2.6,-4.5 1.3,-0.3 2.6,-1.6 3.1,-3.5 0.4,-1.2 0.4,-2.4 0.2,-3.4 -0.2,-0.9 -0.7,-1.6 -1.3,-2 0,-0.2 0,-0.6 -0.4,-0.7 0,-0.3 -0.1,-0.5 -0.1,-0.8 l 0.2,-1.9 C 79.3,21.6 76.1,16.7 71.3,16 c -1.9,-0.3 -3.7,0.4 -5,1.9 V 18 c -1.8,-0.9 -3.8,-0.7 -5.4,0.6 -1.8,1.4 -2.8,3.7 -2.7,6.1 l 0.2,4.8 c -0.2,0 -0.5,0.3 -0.4,0.7 -0.6,0.4 -1.1,1.1 -1.3,2 -0.2,1 -0.2,2.3 0.2,3.4 0.6,1.8 1.8,3.2 3.1,3.5 0.7,1.6 1.6,3.2 2.6,4.5 L 62.3,43.7 61.5,44 55,46.2 c -1.3,0.4 -2.2,1.8 -2.2,3.3 v 2.9 c 0,9.7 7.1,17.5 15.8,17.5 v 0 c 8.7,0 15.8,-7.8 15.8,-17.5 v -2.9 c -0.1,-1.6 -1,-3 -2.4,-3.4 z M 64.7,21.9 c -0.3,4.8 6.8,4.1 6.8,4.1 2.2,-0.2 3.7,0.1 4.7,0.7 0.4,1 0.6,2.1 0.7,3.2 -0.6,0.4 -1.1,0.9 -1.5,1.3 -0.5,-1.2 -1.6,-2.1 -3,-2.1 -1.2,0 -2.3,0.8 -2.8,1.9 -0.8,-0.3 -1.7,-0.3 -2.5,0 -0.6,-1.1 -1.6,-1.9 -2.8,-1.9 -1.3,0 -2.4,0.9 -3,2.1 -0.4,-0.5 -0.9,-0.9 -1.5,-1.3 0.5,-3.5 2.4,-6.5 4.9,-8 z m 6.2,10 c 0,-0.1 -0.1,-0.1 -0.2,-0.1 0.3,-0.7 1,-1.2 1.8,-1.2 1.1,0 2.1,1 2.1,2.3 0,1.3 -0.9,2.3 -2.1,2.3 -1.1,0 -1.9,-0.9 -2,-2.1 0.1,0 0.3,-0.1 0.4,-0.2 0.3,-0.3 0.3,-0.7 0,-1 z m -4.8,0.9 c 0.1,0.1 0.2,0.2 0.4,0.2 -0.1,1.2 -1,2.1 -2,2.1 -1.1,0 -2.1,-1 -2.1,-2.3 0,-1.3 0.9,-2.3 2.1,-2.3 0.8,0 1.5,0.5 1.8,1.2 -0.1,0 -0.1,0.1 -0.2,0.1 -0.3,0.4 -0.3,0.8 0,1 z m -4.9,5.1 c -0.1,-0.3 -0.5,-0.5 -0.8,-0.5 -0.7,0 -1.6,-0.8 -2.1,-2.3 -0.3,-0.8 -0.3,-1.7 -0.1,-2.4 0.1,-0.3 0.3,-0.9 0.8,-1.1 0,0 0.1,0 0.2,0 0.2,0 0.3,-0.1 0.5,-0.2 0.8,0.6 1.4,1.5 1.6,1.8 0.1,1.9 1.5,3.4 3.2,3.4 1.8,0 3.3,-1.6 3.3,-3.6 0,-0.1 0,-0.3 0,-0.5 0.6,-0.2 1.2,-0.2 1.7,0 0,0.1 -0.1,0.3 -0.1,0.5 0,2 1.5,3.6 3.3,3.6 1.7,0 3.1,-1.5 3.2,-3.4 0.2,-0.3 0.7,-1.2 1.6,-1.8 0.1,0.1 0.3,0.2 0.5,0.2 0,0 0.1,0 0.2,0 0.5,0.2 0.7,0.8 0.7,1.1 0.2,0.7 0.1,1.6 -0.1,2.4 -0.5,1.5 -1.5,2.3 -2.1,2.3 v 0 c -0.3,0 -0.6,0.2 -0.8,0.5 -1.4,3.6 -4,7.4 -7.2,7.4 -3.4,0 -6.1,-3.8 -7.5,-7.4 z m 7.3,13 c -3,0 -5.4,-2.3 -6.1,-5.4 L 63.9,45 c 1.3,1.2 2.9,2.1 4.6,2.1 1.7,0 3.2,-0.8 4.6,-2.1 l 1.5,0.5 c -0.7,3.1 -3.1,5.4 -6.1,5.4 z m 0,0"
   id="path211" />
			</g>
		</g>
	</g>
	<g
   id="g215">
		<path
   class="st6"
   d="M 45.8,-0.3 H 4.1 C 1.8,-0.3 0,1.6 0,3.8 v 27.1 c 0,2.3 1.9,4.2 4.2,4.2 h 29.3 l 8.2,8.2 v -8.2 h 4.2 c 2.3,0 4.2,-1.9 4.2,-4.2 V 3.8 C 50,1.6 48.1,-0.3 45.8,-0.3 Z m 2.1,31.2 C 47.9,32 47,33 45.8,33 h -4.2 -2.1 v 2.1 3.2 L 34.8,33.6 34.2,33 H 33.4 4.1 C 3,33 2,32.1 2,30.9 V 3.8 C 2,2.7 2.9,1.7 4.1,1.7 h 41.7 c 1.1,0 2.1,0.9 2.1,2.1 z"
   id="path214" />
	</g>
</g>
</svg>
